{"glyphs":{"0":{"ha":781,"x_min":78,"x_max":702,"o":"m 702 421 q 664 165 702 260 q 557 28 627 70 q 391 -14 487 -14 q 227 28 297 -14 q 117 165 156 70 q 78 421 78 260 l 78 572 q 116 827 78 734 q 225 961 155 921 q 390 1001 295 1001 q 555 961 486 1001 q 664 827 625 921 q 702 572 702 734 l 702 421 m 575 593 q 554 772 575 705 q 492 869 533 839 q 390 899 450 899 q 289 869 330 899 q 226 772 248 839 q 205 593 205 705 l 205 401 q 227 222 205 291 q 290 120 248 153 q 391 88 332 88 q 493 120 452 88 q 554 222 534 153 q 575 401 575 291 l 575 593 z "},"1":{"ha":781,"x_min":116,"x_max":495,"o":"m 495 0 l 368 0 l 368 838 l 116 745 l 116 858 l 475 993 l 495 993 l 495 0 z "},"2":{"ha":781,"x_min":63,"x_max":730,"o":"m 730 0 l 82 0 l 82 90 l 406 450 q 499 563 466 516 q 545 646 532 609 q 557 722 557 684 q 513 847 557 795 q 387 899 469 899 q 276 873 320 899 q 211 802 233 848 q 190 697 190 757 l 63 697 q 100 850 63 781 q 209 960 136 919 q 387 1001 281 1001 q 605 928 526 1001 q 684 737 684 856 q 659 620 684 679 q 592 503 634 561 q 499 390 550 445 l 235 102 l 730 102 l 730 0 z "},"3":{"ha":781,"x_min":64,"x_max":690,"o":"m 355 555 q 463 577 420 555 q 527 638 506 600 q 549 725 549 676 q 530 820 549 781 q 473 879 511 859 q 377 899 435 899 q 284 878 324 899 q 222 819 244 857 q 199 729 199 781 l 73 729 q 111 866 73 805 q 217 964 149 928 q 377 1001 286 1001 q 534 969 467 1001 q 638 876 601 938 q 675 722 675 814 q 658 642 675 684 q 605 563 641 600 q 511 503 568 526 q 372 479 453 479 l 265 479 l 265 555 l 355 555 m 265 528 l 372 528 q 528 505 467 528 q 626 446 590 483 q 676 364 661 409 q 690 275 690 319 q 649 119 690 183 q 537 20 608 54 q 378 -14 467 -14 q 256 5 313 -14 q 156 58 199 23 q 89 144 113 93 q 64 261 64 195 l 191 261 q 214 171 191 210 q 278 110 237 132 q 378 88 320 88 q 514 134 464 88 q 564 273 564 180 q 538 374 564 334 q 465 434 512 414 q 355 453 418 453 l 265 453 l 265 528 z "},"4":{"ha":781,"x_min":36,"x_max":749,"o":"m 749 230 l 36 230 l 36 303 l 477 987 l 581 987 l 471 790 l 179 332 l 749 332 l 749 230 m 612 0 l 486 0 l 486 987 l 612 987 l 612 0 z "},"5":{"ha":781,"x_min":104,"x_max":726,"o":"m 140 496 l 190 987 l 696 987 l 696 873 l 297 873 l 268 602 q 336 631 294 618 q 432 645 378 645 q 589 604 523 645 q 690 490 654 564 q 726 315 726 416 q 691 146 726 220 q 588 29 657 72 q 413 -14 519 -14 q 300 3 353 -14 q 205 54 247 20 q 137 139 163 88 q 104 260 111 191 l 224 260 q 285 132 236 176 q 413 88 334 88 q 514 116 472 88 q 577 194 555 143 q 599 313 599 244 q 576 425 599 376 q 510 504 553 475 q 402 533 466 533 q 307 516 339 533 q 241 470 275 500 l 140 496 z "},"6":{"ha":781,"x_min":90,"x_max":714,"o":"m 574 989 l 574 883 l 564 883 q 397 851 464 883 q 291 765 330 819 q 234 644 251 711 q 217 507 217 576 l 217 361 q 244 213 217 273 q 315 121 271 152 q 408 90 359 90 q 506 119 466 90 q 568 199 547 148 q 589 316 589 250 q 570 427 589 375 q 511 512 551 479 q 410 545 471 545 q 313 519 358 545 q 239 452 268 494 q 207 363 211 411 l 140 363 q 176 493 150 439 q 241 581 202 547 q 329 631 280 615 q 431 648 377 648 q 592 600 530 648 q 684 478 654 553 q 714 322 714 404 q 679 153 714 229 q 576 32 644 77 q 408 -14 508 -14 q 268 19 328 -14 q 169 107 208 52 q 110 229 130 161 q 90 365 90 296 l 90 425 q 111 630 90 530 q 183 811 132 730 q 328 941 235 892 q 564 989 420 989 l 574 989 z "},"7":{"ha":781,"x_min":53,"x_max":721,"o":"m 721 918 l 312 0 l 179 0 l 587 886 l 53 886 l 53 987 l 721 987 l 721 918 z "},"8":{"ha":781,"x_min":77,"x_max":705,"o":"m 705 267 q 663 114 705 177 q 550 19 621 52 q 391 -14 479 -14 q 231 19 302 -14 q 118 114 159 52 q 77 267 77 177 q 117 406 77 345 q 227 502 157 467 q 389 537 298 537 q 551 502 480 537 q 664 406 623 467 q 705 267 705 345 m 578 270 q 554 367 578 325 q 488 433 530 410 q 389 457 446 457 q 291 433 332 457 q 226 367 249 410 q 203 270 203 325 q 226 172 203 213 q 291 110 249 132 q 391 88 333 88 q 491 110 449 88 q 555 172 532 132 q 578 270 578 213 m 682 730 q 644 601 682 659 q 540 510 606 543 q 391 477 474 477 q 240 510 306 477 q 136 601 174 543 q 99 730 99 659 q 137 877 99 817 q 240 969 174 937 q 391 1001 307 1001 q 541 969 475 1001 q 644 877 606 937 q 682 730 682 817 m 555 728 q 534 816 555 778 q 476 877 513 854 q 391 899 439 899 q 304 878 341 899 q 247 819 267 857 q 226 728 226 781 q 247 640 226 677 q 304 581 267 602 q 391 559 341 559 q 477 581 440 559 q 534 640 513 602 q 555 728 555 677 z "},"9":{"ha":781,"x_min":68,"x_max":690,"o":"m 220 104 q 396 135 328 104 q 500 217 464 165 q 550 334 536 269 q 564 467 564 399 l 564 618 q 537 771 564 709 q 468 866 511 833 q 374 898 425 898 q 276 867 317 898 q 213 785 235 837 q 192 667 192 732 q 211 555 192 608 q 270 467 231 501 q 370 433 310 433 q 449 450 412 433 q 514 496 486 467 q 560 562 543 525 q 581 639 578 599 l 641 639 q 619 528 641 583 q 557 428 597 473 q 465 357 518 383 q 350 330 412 330 q 190 379 252 330 q 98 504 127 428 q 68 660 68 579 q 102 831 68 754 q 205 955 137 909 q 374 1001 274 1001 q 519 967 459 1001 q 617 877 579 934 q 672 749 654 820 q 690 602 690 677 l 690 555 q 680 399 690 478 q 643 249 670 320 q 563 120 615 177 q 427 31 511 64 q 220 -1 343 -1 l 207 -1 l 207 104 l 220 104 z "}," ":{"ha":345,"x_min":0,"x_max":0,"o":""},"A":{"ha":907,"x_min":19,"x_max":889,"o":"m 155 0 l 19 0 l 396 987 l 483 987 l 481 901 l 155 0 m 427 901 l 425 987 l 511 987 l 889 0 l 754 0 l 427 901 m 738 258 l 182 258 l 182 365 l 738 365 l 738 258 z "},"B":{"ha":865,"x_min":115,"x_max":787,"o":"m 217 463 l 216 566 l 442 566 q 578 608 526 566 q 629 726 629 650 q 582 844 629 807 q 439 881 535 881 l 246 881 l 246 0 l 115 0 l 115 987 l 439 987 q 675 925 590 987 q 761 724 761 862 q 730 614 761 663 q 643 534 699 565 q 513 494 587 503 l 467 463 l 217 463 m 165 0 l 240 106 l 460 106 q 604 154 553 106 q 655 283 655 202 q 635 379 655 338 q 574 441 616 419 q 467 463 533 463 l 280 463 l 281 566 l 536 566 l 564 528 q 685 488 635 522 q 761 401 734 454 q 787 285 787 349 q 697 73 787 146 q 460 0 608 0 l 165 0 z "},"C":{"ha":904,"x_min":81,"x_max":842,"o":"m 842 313 q 788 146 831 220 q 665 29 745 72 q 467 -14 586 -14 q 264 43 351 -14 q 129 203 177 100 q 81 444 81 306 l 81 543 q 129 784 81 682 q 267 944 178 887 q 479 1001 357 1001 q 668 959 591 1001 q 788 843 745 918 q 842 671 831 768 l 710 671 q 644 834 695 774 q 479 895 593 895 q 332 851 391 895 q 243 728 273 807 q 213 545 213 650 l 213 444 q 240 267 213 347 q 323 140 267 187 q 467 92 379 92 q 599 119 550 92 q 674 195 648 145 q 710 313 699 244 l 842 313 z "},"D":{"ha":911,"x_min":115,"x_max":829,"o":"m 176 0 l 177 106 l 382 106 q 557 150 487 106 q 664 275 628 195 q 699 464 699 355 l 699 525 q 664 718 699 638 q 559 839 628 797 q 393 881 491 881 l 172 881 l 172 987 l 393 987 q 622 931 524 987 q 774 770 720 874 q 829 524 829 666 l 829 464 q 774 217 829 321 q 619 57 720 113 q 382 0 519 0 l 176 0 m 246 0 l 115 0 l 115 987 l 246 987 l 246 0 z "},"E":{"ha":789,"x_min":115,"x_max":742,"o":"m 742 0 l 220 0 l 220 106 l 742 106 l 742 0 m 246 0 l 115 0 l 115 987 l 246 987 l 246 0 m 673 457 l 220 457 l 220 563 l 673 563 l 673 457 m 735 881 l 220 881 l 220 987 l 735 987 l 735 881 z "},"F":{"ha":768,"x_min":115,"x_max":726,"o":"m 246 0 l 115 0 l 115 987 l 246 987 l 246 0 m 659 437 l 218 437 l 218 543 l 659 543 l 659 437 m 726 881 l 218 881 l 218 987 l 726 987 l 726 881 z "},"G":{"ha":946,"x_min":83,"x_max":844,"o":"m 844 130 q 786 70 826 103 q 676 11 747 36 q 495 -14 606 -14 q 282 42 375 -14 q 136 203 189 98 q 83 455 83 308 l 83 533 q 129 785 83 680 q 263 945 175 890 q 479 1001 352 1001 q 669 962 593 1001 q 789 854 746 923 q 844 699 832 786 l 713 699 q 678 797 704 752 q 604 868 652 841 q 480 895 555 895 q 330 851 389 895 q 243 726 271 807 q 215 534 215 646 l 215 455 q 250 260 215 341 q 349 136 286 179 q 496 92 412 92 q 609 104 566 92 q 676 133 652 116 q 713 164 701 149 l 713 387 l 486 387 l 486 492 l 844 492 l 844 130 z "},"H":{"ha":991,"x_min":115,"x_max":874,"o":"m 759 457 l 226 457 l 226 563 l 759 563 l 759 457 m 246 0 l 115 0 l 115 987 l 246 987 l 246 0 m 874 0 l 743 0 l 743 987 l 874 987 l 874 0 z "},"I":{"ha":378,"x_min":124,"x_max":256,"o":"m 256 0 l 124 0 l 124 987 l 256 987 l 256 0 z "},"J":{"ha":766,"x_min":36,"x_max":660,"o":"m 528 987 l 660 987 l 660 289 q 620 124 660 191 q 509 21 580 56 q 348 -14 439 -14 q 186 18 257 -14 q 76 113 116 49 q 36 273 36 176 l 168 273 q 218 136 168 180 q 348 92 269 92 q 440 115 399 92 q 505 181 481 137 q 528 289 528 224 l 528 987 z "},"K":{"ha":871,"x_min":115,"x_max":872,"o":"m 246 0 l 115 0 l 115 987 l 246 987 l 246 0 m 432 527 l 201 288 l 180 427 l 353 618 l 684 987 l 842 987 l 432 527 m 350 481 l 429 585 l 872 0 l 715 0 l 350 481 z "},"L":{"ha":748,"x_min":115,"x_max":714,"o":"m 714 0 l 220 0 l 220 106 l 714 106 l 714 0 m 246 0 l 115 0 l 115 987 l 246 987 l 246 0 z "},"M":{"ha":1213,"x_min":115,"x_max":1098,"o":"m 284 987 l 606 180 l 928 987 l 1057 987 l 656 0 l 556 0 l 156 987 l 284 987 m 227 987 l 245 386 l 245 0 l 115 0 l 115 987 l 227 987 m 1098 987 l 1098 0 l 967 0 l 967 386 l 985 987 l 1098 987 z "},"N":{"ha":991,"x_min":115,"x_max":874,"o":"m 874 0 l 742 0 l 246 764 l 246 0 l 115 0 l 115 987 l 246 987 l 744 222 l 744 987 l 874 987 l 874 0 z "},"O":{"ha":956,"x_min":80,"x_max":875,"o":"m 875 462 q 826 208 875 314 q 688 44 777 101 q 479 -14 600 -14 q 272 44 362 -14 q 131 208 182 101 q 80 462 80 314 l 80 525 q 131 780 80 673 q 271 944 181 886 q 477 1001 361 1001 q 687 944 598 1001 q 826 780 777 886 q 875 525 875 673 l 875 462 m 745 526 q 713 725 745 644 q 621 848 681 806 q 477 890 562 890 q 337 848 397 890 q 244 725 277 806 q 211 526 211 644 l 211 462 q 244 262 211 343 q 338 138 277 180 q 479 96 398 96 q 623 138 564 96 q 713 262 682 180 q 745 462 745 343 l 745 526 z "},"P":{"ha":877,"x_min":115,"x_max":826,"o":"m 216 387 l 216 493 l 479 493 q 603 518 556 493 q 672 586 650 543 q 694 685 694 629 q 672 781 694 736 q 603 853 650 825 q 479 881 556 881 l 246 881 l 246 0 l 115 0 l 115 987 l 479 987 q 669 949 591 987 q 786 842 746 910 q 826 686 826 774 q 786 524 826 591 q 669 422 746 457 q 479 387 591 387 l 216 387 z "},"Q":{"ha":956,"x_min":74,"x_max":873,"o":"m 873 -86 l 784 -168 l 536 29 l 621 113 l 873 -86 m 869 462 q 821 208 869 314 q 683 44 772 101 q 473 -14 593 -14 q 266 44 356 -14 q 125 208 176 101 q 74 462 74 314 l 74 525 q 124 780 74 673 q 265 944 175 886 q 471 1001 355 1001 q 682 944 592 1001 q 820 780 771 886 q 869 525 869 673 l 869 462 m 739 526 q 707 725 739 644 q 616 848 675 806 q 471 890 556 890 q 331 848 391 890 q 238 725 271 806 q 205 526 205 644 l 205 462 q 239 262 205 343 q 332 138 272 180 q 473 96 393 96 q 617 138 557 96 q 707 262 676 180 q 739 462 739 343 l 739 526 z "},"R":{"ha":855,"x_min":115,"x_max":831,"o":"m 441 987 q 630 954 553 987 q 748 853 707 920 q 788 691 788 787 q 761 568 788 623 q 682 473 733 512 q 559 414 630 433 l 522 400 l 216 400 l 214 506 l 445 506 q 562 531 515 506 q 632 598 609 556 q 656 691 656 640 q 605 829 656 777 q 441 881 554 881 l 246 881 l 246 0 l 115 0 l 115 987 l 441 987 m 451 448 l 589 448 l 831 8 l 831 0 l 690 0 l 451 448 z "},"S":{"ha":825,"x_min":55,"x_max":772,"o":"m 640 250 q 621 329 640 296 q 550 388 601 361 q 406 441 499 414 q 274 489 332 463 q 173 551 215 516 q 109 630 131 585 q 86 732 86 675 q 128 870 86 810 q 245 966 170 931 q 421 1001 320 1001 q 611 959 533 1001 q 730 848 689 916 q 770 703 770 780 l 638 703 q 615 802 638 758 q 543 870 591 845 q 421 895 495 895 q 307 873 352 895 q 240 817 262 852 q 218 734 218 781 q 242 661 218 693 q 317 603 266 629 q 448 554 368 577 q 632 481 560 523 q 738 384 704 440 q 772 251 772 328 q 730 111 772 171 q 610 19 687 52 q 428 -14 532 -14 q 293 5 359 -14 q 173 62 227 24 q 87 156 119 100 q 55 286 55 212 l 186 286 q 206 199 186 235 q 260 138 226 162 q 337 103 294 115 q 428 92 380 92 q 544 112 496 92 q 615 166 591 131 q 640 250 640 201 z "},"T":{"ha":829,"x_min":34,"x_max":797,"o":"m 480 0 l 350 0 l 350 987 l 480 987 l 480 0 m 797 881 l 34 881 l 34 987 l 797 987 l 797 881 z "},"U":{"ha":901,"x_min":95,"x_max":810,"o":"m 810 987 l 810 319 q 761 134 810 208 q 629 23 711 60 q 452 -14 547 -14 q 270 23 351 -14 q 142 134 189 60 q 95 319 95 208 l 95 987 l 225 987 l 225 319 q 254 192 225 242 q 333 117 282 142 q 452 92 384 92 q 571 117 520 92 q 650 192 622 142 q 678 319 678 242 l 678 987 l 810 987 z "},"V":{"ha":885,"x_min":20,"x_max":867,"o":"m 724 987 l 867 987 l 501 0 l 399 0 l 433 149 l 724 987 m 450 149 l 486 0 l 385 0 l 20 987 l 163 987 l 450 149 z "},"W":{"ha":1232,"x_min":41,"x_max":1202,"o":"m 570 987 l 666 987 l 610 721 l 400 0 l 304 0 l 374 298 l 570 987 m 328 311 l 374 0 l 280 0 l 41 987 l 173 987 l 328 311 m 1070 987 l 1202 987 l 964 0 l 869 0 l 918 311 l 1070 987 m 870 298 l 939 0 l 844 0 l 641 721 l 586 987 l 680 987 l 870 298 z "},"X":{"ha":871,"x_min":39,"x_max":835,"o":"m 437 608 l 673 987 l 827 987 l 516 498 l 835 0 l 680 0 l 437 387 l 194 0 l 39 0 l 359 498 l 46 987 l 201 987 l 437 608 z "},"Y":{"ha":834,"x_min":10,"x_max":822,"o":"m 416 491 l 673 987 l 822 987 l 482 369 l 482 0 l 350 0 l 350 369 l 10 987 l 161 987 l 416 491 z "},"Z":{"ha":832,"x_min":59,"x_max":777,"o":"m 777 0 l 109 0 l 109 106 l 777 106 l 777 0 m 140 0 l 59 0 l 59 97 l 673 987 l 755 987 l 755 893 l 140 0 m 700 881 l 67 881 l 67 987 l 700 987 l 700 881 z "},"a":{"ha":756,"x_min":74,"x_max":680,"o":"m 528 503 q 489 608 528 569 q 374 647 450 647 q 291 631 327 647 q 236 588 256 614 q 216 530 216 562 l 90 530 q 125 633 90 583 q 227 715 161 683 q 381 747 292 747 q 523 720 461 747 q 620 638 585 693 q 654 502 654 584 l 654 160 q 661 82 654 123 q 680 11 667 41 l 680 0 l 548 0 q 533 58 538 22 q 528 125 528 94 l 528 503 m 551 357 l 425 357 q 259 323 317 357 q 201 221 201 289 q 236 132 201 168 q 340 95 272 95 q 442 119 398 95 q 512 180 486 144 q 540 249 538 216 l 594 189 q 568 125 589 160 q 512 59 547 91 q 430 7 477 28 q 322 -14 382 -14 q 192 15 248 -14 q 105 94 136 44 q 74 203 74 143 q 163 384 74 322 q 404 445 253 445 l 549 445 l 551 357 z "},"b":{"ha":780,"x_min":95,"x_max":717,"o":"m 222 1042 l 222 142 l 211 0 l 95 0 l 95 1042 l 222 1042 m 717 359 q 684 168 717 252 q 587 35 650 83 q 432 -14 523 -14 q 276 29 338 -14 q 179 149 214 71 q 134 333 144 227 l 134 399 q 179 585 144 507 q 276 705 214 663 q 431 747 338 747 q 587 701 523 747 q 684 569 650 654 q 717 373 717 485 l 717 359 m 590 373 q 572 508 590 446 q 512 606 553 569 q 399 642 470 642 q 317 626 352 642 q 258 582 282 610 q 218 520 233 555 q 195 448 203 485 l 195 283 q 231 192 206 235 q 297 120 255 148 q 400 92 338 92 q 510 129 468 92 q 571 225 551 165 q 590 359 590 286 l 590 373 z "},"c":{"ha":728,"x_min":62,"x_max":682,"o":"m 389 88 q 472 107 434 88 q 534 158 510 125 q 562 232 559 191 l 682 232 q 638 111 679 167 q 532 21 597 55 q 389 -14 467 -14 q 206 37 279 -14 q 98 171 134 87 q 62 353 62 254 l 62 381 q 98 563 62 480 q 207 697 134 646 q 389 747 279 747 q 540 712 475 747 q 642 617 605 677 q 682 481 679 557 l 562 481 q 537 564 559 527 q 477 624 515 602 q 389 646 439 646 q 269 606 313 646 q 207 506 225 567 q 189 381 189 446 l 189 353 q 207 227 189 288 q 268 127 224 166 q 389 88 312 88 z "},"d":{"ha":784,"x_min":64,"x_max":684,"o":"m 557 1042 l 684 1042 l 684 0 l 568 0 l 557 142 l 557 1042 m 64 373 q 101 569 64 485 q 202 701 137 654 q 355 747 267 747 q 509 705 447 747 q 605 585 570 663 q 650 399 640 507 l 650 333 q 606 149 640 227 q 509 29 571 71 q 353 -14 447 -14 q 202 35 267 -14 q 101 168 137 83 q 64 359 64 252 l 64 373 m 191 359 q 211 225 191 286 q 274 129 231 165 q 385 92 317 92 q 487 119 447 92 q 552 189 528 145 q 590 283 576 232 l 590 448 q 567 520 582 485 q 527 582 551 555 q 468 626 503 610 q 386 642 433 642 q 274 606 317 642 q 211 508 231 569 q 191 373 191 446 l 191 359 z "},"e":{"ha":737,"x_min":63,"x_max":686,"o":"m 400 -14 q 222 32 298 -14 q 105 158 146 78 q 63 341 63 238 l 63 370 q 109 574 63 490 q 228 703 155 659 q 384 747 302 747 q 556 700 490 747 q 655 572 623 653 q 686 389 686 491 l 686 332 l 138 332 l 138 434 l 559 434 l 559 444 q 540 539 557 492 q 486 615 523 585 q 384 646 448 646 q 283 613 327 646 q 215 520 239 581 q 190 370 190 458 l 190 341 q 216 214 190 271 q 290 122 241 157 q 407 88 339 88 q 519 115 473 88 q 600 188 566 142 l 677 128 q 575 30 642 74 q 400 -14 509 -14 z "},"f":{"ha":483,"x_min":41,"x_max":485,"o":"m 157 0 l 157 812 q 221 993 157 930 q 399 1056 286 1056 q 442 1053 420 1056 q 485 1045 464 1050 l 478 944 q 446 948 464 947 q 410 949 428 949 q 317 914 351 949 q 283 812 283 878 l 283 0 l 157 0 m 439 638 l 41 638 l 41 734 l 439 734 l 439 638 z "},"g":{"ha":780,"x_min":65,"x_max":686,"o":"m 686 734 l 686 16 q 646 -150 686 -81 q 536 -254 606 -218 q 374 -290 466 -290 q 285 -278 336 -290 q 185 -238 234 -266 q 102 -162 136 -210 l 168 -88 q 265 -166 214 -144 q 365 -188 315 -188 q 506 -137 454 -188 q 559 9 559 -87 l 559 572 l 570 734 l 686 734 m 65 373 q 100 569 65 485 q 201 701 136 654 q 355 747 266 747 q 476 723 425 747 q 565 654 528 699 q 622 544 601 608 q 652 399 644 479 l 652 333 q 607 149 642 227 q 509 29 572 71 q 354 -14 447 -14 q 201 35 266 -14 q 101 168 136 83 q 65 359 65 252 l 65 373 m 192 359 q 212 225 192 286 q 275 129 232 165 q 385 92 317 92 q 488 119 448 92 q 552 189 528 145 q 590 283 576 232 l 590 448 q 567 520 582 485 q 528 582 552 555 q 468 626 503 610 q 387 642 433 642 q 275 606 318 642 q 212 508 232 569 q 192 373 192 446 l 192 359 z "},"h":{"ha":765,"x_min":95,"x_max":673,"o":"m 222 0 l 95 0 l 95 1042 l 222 1042 l 222 0 m 139 397 q 178 577 140 498 q 282 702 215 656 q 437 747 349 747 q 563 721 510 747 q 644 635 615 694 q 673 481 673 577 l 673 0 l 546 0 l 546 482 q 529 575 546 540 q 480 626 513 610 q 400 642 448 642 q 315 623 353 642 q 250 568 277 603 q 207 489 222 534 q 192 395 192 445 l 139 397 z "},"i":{"ha":338,"x_min":96,"x_max":245,"o":"m 233 0 l 106 0 l 106 734 l 233 734 l 233 0 m 96 929 q 115 980 96 959 q 170 1001 134 1001 q 226 980 207 1001 q 245 929 245 959 q 226 879 245 900 q 170 859 207 859 q 115 879 134 859 q 96 929 96 900 z "},"j":{"ha":333,"x_min":-44,"x_max":235,"o":"m 226 734 l 226 -87 q 178 -242 226 -189 q 34 -296 131 -296 q -6 -293 17 -296 q -44 -285 -28 -290 l -43 -184 q -14 -189 -31 -187 q 14 -191 2 -191 q 77 -167 55 -191 q 99 -87 99 -144 l 99 734 l 226 734 m 86 929 q 105 980 86 959 q 160 1001 123 1001 q 216 980 197 1001 q 235 929 235 959 q 216 879 235 900 q 160 859 197 859 q 105 879 123 859 q 86 929 86 900 z "},"k":{"ha":705,"x_min":96,"x_max":704,"o":"m 222 0 l 96 0 l 96 1042 l 222 1042 l 222 0 m 351 392 l 171 206 l 161 339 l 290 492 l 516 734 l 670 734 l 351 392 m 294 351 l 359 462 l 704 0 l 555 0 l 294 351 z "},"l":{"ha":338,"x_min":106,"x_max":233,"o":"m 233 0 l 106 0 l 106 1042 l 233 1042 l 233 0 z "},"m":{"ha":1217,"x_min":94,"x_max":1123,"o":"m 221 0 l 94 0 l 94 734 l 214 734 l 221 588 l 221 0 m 136 397 q 171 577 137 498 q 270 702 204 656 q 435 747 336 747 q 605 687 538 747 q 672 489 672 627 l 672 0 l 545 0 l 545 483 q 526 575 545 541 q 471 626 507 610 q 389 642 436 642 q 297 623 334 642 q 237 568 260 603 q 205 489 215 534 q 195 395 195 445 l 136 397 m 586 439 q 620 589 587 519 q 719 704 654 660 q 878 747 784 747 q 1011 720 956 747 q 1095 633 1066 692 q 1123 482 1123 575 l 1123 0 l 996 0 l 996 484 q 977 580 996 545 q 923 628 958 614 q 840 642 888 642 q 767 628 799 642 q 714 589 736 614 q 682 532 693 564 q 671 465 671 500 l 586 439 z "},"n":{"ha":767,"x_min":95,"x_max":673,"o":"m 222 0 l 95 0 l 95 734 l 215 734 l 222 577 l 222 0 m 139 397 q 178 577 140 498 q 282 702 215 656 q 437 747 349 747 q 563 721 510 747 q 644 635 615 694 q 673 481 673 577 l 673 0 l 546 0 l 546 482 q 529 575 546 540 q 480 626 513 610 q 400 642 448 642 q 315 623 353 642 q 250 568 277 603 q 207 489 222 534 q 192 395 192 445 l 139 397 z "},"o":{"ha":793,"x_min":62,"x_max":730,"o":"m 62 374 q 103 565 62 481 q 218 698 144 649 q 395 747 293 747 q 574 698 499 747 q 690 565 650 649 q 730 374 730 481 l 730 359 q 690 169 730 253 q 575 35 650 84 q 397 -14 500 -14 q 219 35 294 -14 q 103 169 144 84 q 62 359 62 253 l 62 374 m 189 359 q 212 224 189 286 q 281 125 235 163 q 397 88 327 88 q 512 125 466 88 q 581 224 557 163 q 604 359 604 286 l 604 374 q 581 509 604 447 q 511 608 557 570 q 395 646 465 646 q 281 608 327 646 q 212 509 235 570 q 189 374 189 447 l 189 359 z "},"p":{"ha":780,"x_min":95,"x_max":715,"o":"m 222 -282 l 95 -282 l 95 734 l 210 734 l 222 593 l 222 -282 m 715 359 q 682 168 715 252 q 586 35 649 83 q 431 -14 522 -14 q 273 27 337 -14 q 174 143 210 68 q 127 320 138 218 l 127 399 q 174 585 138 507 q 274 705 210 663 q 429 747 337 747 q 585 701 522 747 q 682 569 649 654 q 715 373 715 485 l 715 359 m 589 373 q 568 508 589 446 q 504 606 547 569 q 391 642 460 642 q 310 626 345 642 q 251 582 275 610 q 211 520 227 555 q 189 448 196 485 l 189 271 q 226 181 202 223 q 291 114 250 140 q 393 88 331 88 q 504 125 460 88 q 568 224 547 163 q 589 359 589 286 l 589 373 z "},"q":{"ha":790,"x_min":64,"x_max":684,"o":"m 557 593 l 568 734 l 684 734 l 684 -282 l 557 -282 l 557 593 m 64 373 q 99 569 64 485 q 200 701 134 654 q 357 747 265 747 q 512 705 450 747 q 611 585 575 663 q 656 399 646 507 l 656 333 q 611 149 647 227 q 512 29 576 71 q 355 -14 449 -14 q 200 35 265 -14 q 99 168 134 83 q 64 359 64 252 l 64 373 m 191 359 q 212 224 191 286 q 276 125 233 163 q 387 88 319 88 q 491 116 450 88 q 557 188 532 143 q 596 283 583 232 l 596 448 q 572 520 588 485 q 532 584 557 555 q 471 629 507 612 q 389 646 435 646 q 276 608 320 646 q 212 508 233 570 q 191 373 191 446 l 191 359 z "},"r":{"ha":471,"x_min":95,"x_max":450,"o":"m 222 0 l 95 0 l 95 734 l 218 734 l 222 618 l 222 0 m 450 622 q 420 626 434 625 q 389 627 406 627 q 291 604 331 627 q 230 538 252 580 q 203 443 208 496 l 167 422 q 191 585 167 511 q 265 703 214 659 q 395 747 315 747 q 426 744 408 747 q 450 738 444 741 l 450 622 z "},"s":{"ha":717,"x_min":64,"x_max":649,"o":"m 522 195 q 510 245 522 222 q 463 288 498 269 q 354 322 427 307 q 213 365 273 339 q 122 432 154 391 q 90 533 90 473 q 123 640 90 591 q 218 718 157 688 q 361 747 279 747 q 512 716 450 747 q 608 634 575 686 q 642 519 642 582 l 515 519 q 475 605 515 564 q 361 646 435 646 q 278 630 310 646 q 231 589 245 614 q 216 537 216 564 q 230 490 216 510 q 280 454 243 470 q 385 423 316 439 q 534 374 475 403 q 621 304 592 346 q 649 203 649 263 q 614 91 649 140 q 515 14 578 41 q 365 -14 451 -14 q 201 21 268 -14 q 99 110 134 56 q 64 226 64 165 l 191 226 q 221 144 195 174 q 287 101 248 114 q 365 88 326 88 q 451 102 416 88 q 504 140 486 116 q 522 195 522 164 z "},"t":{"ha":454,"x_min":6,"x_max":406,"o":"m 404 638 l 6 638 l 6 734 l 404 734 l 404 638 m 267 912 l 267 182 q 278 125 267 144 q 308 100 290 106 q 347 94 326 94 q 380 96 363 94 q 406 101 397 99 l 406 0 q 367 -9 391 -5 q 309 -14 343 -14 q 224 5 263 -14 q 163 66 186 23 q 140 182 140 109 l 140 912 l 267 912 z "},"u":{"ha":766,"x_min":92,"x_max":671,"o":"m 544 734 l 671 734 l 671 0 l 550 0 l 544 170 l 544 734 m 621 326 q 593 151 621 228 q 502 31 565 75 q 333 -14 439 -14 q 159 50 225 -14 q 92 260 92 114 l 92 734 l 219 734 l 219 259 q 238 156 219 193 q 289 106 258 120 q 353 92 319 92 q 480 123 433 92 q 547 207 527 154 q 568 324 568 260 l 621 326 z "},"v":{"ha":673,"x_min":22,"x_max":648,"o":"m 518 734 l 648 734 l 385 0 l 299 0 l 319 113 l 518 734 m 358 109 l 373 0 l 288 0 l 22 734 l 152 734 l 358 109 z "},"w":{"ha":1044,"x_min":29,"x_max":1011,"o":"m 469 734 l 553 734 l 536 613 l 345 0 l 264 0 l 281 132 l 469 734 m 316 125 l 327 0 l 242 0 l 29 734 l 155 734 l 316 125 m 886 734 l 1011 734 l 798 0 l 714 0 l 732 129 l 886 734 m 756 141 l 777 0 l 696 0 l 498 614 l 483 734 l 572 734 l 756 141 z "},"x":{"ha":689,"x_min":28,"x_max":659,"o":"m 342 466 l 503 734 l 651 734 l 412 372 l 659 0 l 513 0 l 344 276 l 176 0 l 28 0 l 275 372 l 35 734 l 182 734 l 342 466 z "},"y":{"ha":657,"x_min":15,"x_max":640,"o":"m 505 734 l 640 734 l 346 -113 q 319 -172 336 -140 q 277 -232 302 -203 q 215 -278 252 -260 q 128 -296 178 -296 q 104 -294 118 -296 q 77 -290 90 -292 q 57 -286 64 -288 l 57 -184 q 74 -186 62 -185 q 91 -188 86 -188 q 191 -161 155 -188 q 249 -67 227 -135 l 301 76 l 505 734 m 342 163 l 375 31 l 284 -14 l 15 734 l 153 734 l 342 163 z "},"z":{"ha":689,"x_min":60,"x_max":642,"o":"m 642 0 l 109 0 l 109 102 l 642 102 l 642 0 m 138 0 l 60 0 l 60 92 l 543 734 l 623 734 l 623 646 l 138 0 m 567 631 l 66 631 l 66 734 l 567 734 l 567 631 z "},"¹":{"ha":510,"x_min":83,"x_max":336,"o":"m 336 452 l 229 452 l 229 861 l 83 822 l 83 909 l 324 987 l 336 987 l 336 452 z "},"²":{"ha":510,"x_min":45,"x_max":464,"o":"m 464 452 l 57 452 l 57 526 l 253 709 q 316 781 298 751 q 334 833 334 811 q 313 888 334 867 q 251 909 291 909 q 176 883 200 909 q 153 818 153 857 l 45 818 q 69 907 45 867 q 139 971 94 947 q 248 995 184 995 q 391 952 339 995 q 442 835 442 909 q 426 768 442 799 q 381 705 410 736 q 313 638 353 674 l 194 538 l 464 538 l 464 452 z "},"³":{"ha":510,"x_min":43,"x_max":452,"o":"m 237 764 q 311 784 287 764 q 336 838 336 805 q 314 888 336 868 q 246 909 293 909 q 183 892 208 909 q 157 845 157 875 l 50 845 q 76 925 50 891 q 146 977 102 958 q 244 995 190 995 q 388 956 333 995 q 443 843 443 918 q 421 777 443 807 q 357 729 399 747 q 256 711 315 711 l 180 711 l 180 764 l 237 764 m 180 738 l 256 738 q 367 722 323 738 q 431 675 410 706 q 452 602 452 645 q 393 486 452 527 q 245 445 334 445 q 148 461 194 445 q 72 513 101 478 q 43 603 43 548 l 150 603 q 177 552 150 572 q 248 531 204 531 q 320 552 296 531 q 345 607 345 573 q 316 668 345 650 q 237 686 288 686 l 180 686 l 180 738 z "},"ª":{"ha":621,"x_min":100,"x_max":532,"o":"m 403 815 q 382 883 403 859 q 319 907 361 907 q 246 888 273 907 q 220 835 220 870 l 110 844 q 167 957 110 912 q 319 1002 224 1002 q 460 955 407 1002 q 514 814 514 907 l 514 602 q 518 538 514 568 q 532 479 523 509 l 419 479 q 407 530 412 503 q 403 585 403 557 l 403 815 m 431 704 l 330 704 q 240 681 269 704 q 211 625 211 658 q 231 579 211 596 q 295 562 252 562 q 354 575 324 562 q 403 607 383 588 q 422 644 422 626 l 434 568 q 403 523 425 546 q 348 485 382 500 q 269 469 315 469 q 143 511 187 469 q 100 623 100 553 q 157 738 100 697 q 330 779 214 779 l 431 779 l 431 704 z "},"º":{"ha":632,"x_min":83,"x_max":548,"o":"m 83 762 q 146 935 83 867 q 315 1002 209 1002 q 486 935 423 1002 q 548 762 548 867 l 548 707 q 486 536 548 603 q 317 469 424 469 q 146 536 209 469 q 83 707 83 603 l 83 762 m 195 707 q 224 604 195 646 q 317 562 254 562 q 407 604 377 562 q 437 707 437 646 l 437 762 q 407 865 437 823 q 315 907 377 907 q 224 865 254 907 q 195 762 195 823 l 195 707 z "},"½":{"ha":1074,"x_min":83,"x_max":1028,"o":"m 324 75 l 253 120 l 735 892 l 806 847 l 324 75 m 336 370 l 229 370 l 229 779 l 83 740 l 83 827 l 324 905 l 336 905 l 336 370 m 1028 0 l 621 0 l 621 73 l 817 257 q 881 329 863 299 q 899 381 899 359 q 877 435 899 414 q 815 456 855 456 q 741 430 764 456 q 717 366 717 404 l 609 366 q 633 454 609 414 q 703 518 658 494 q 812 543 749 543 q 955 499 903 543 q 1006 382 1006 456 q 990 315 1006 347 q 946 253 975 284 q 877 186 917 222 l 758 86 l 1028 86 l 1028 0 z "},"¼":{"ha":994,"x_min":83,"x_max":959,"o":"m 331 75 l 260 120 l 742 892 l 813 847 l 331 75 m 336 370 l 229 370 l 229 779 l 83 740 l 83 827 l 324 905 l 336 905 l 336 370 m 959 115 l 526 115 l 521 184 l 777 535 l 861 535 l 768 380 l 629 203 l 959 203 l 959 115 m 886 0 l 779 0 l 779 535 l 886 535 l 886 0 z "},"¾":{"ha":1069,"x_min":43,"x_max":1034,"o":"m 237 677 q 311 697 287 677 q 336 751 336 718 q 314 802 336 781 q 246 822 293 822 q 183 805 208 822 q 157 758 157 788 l 50 758 q 76 838 50 804 q 146 890 102 871 q 244 908 190 908 q 388 869 333 908 q 443 756 443 831 q 421 690 443 720 q 357 643 399 661 q 256 625 315 625 l 180 625 l 180 677 l 237 677 m 180 651 l 256 651 q 367 635 323 651 q 431 589 410 619 q 452 515 452 558 q 393 399 452 440 q 245 358 334 358 q 148 375 194 358 q 72 426 101 391 q 43 516 43 461 l 150 516 q 177 465 150 486 q 248 444 204 444 q 320 465 296 444 q 345 520 345 486 q 316 581 345 563 q 237 599 288 599 l 180 599 l 180 651 m 406 75 l 334 120 l 817 892 l 888 847 l 406 75 m 1034 115 l 600 115 l 595 184 l 851 535 l 936 535 l 843 380 l 703 203 l 1034 203 l 1034 115 m 961 0 l 853 0 l 853 535 l 961 535 l 961 0 z "},"Æ":{"ha":1299,"x_min":-11,"x_max":1276,"o":"m 144 0 l -11 0 l 587 987 l 668 987 l 658 887 l 144 0 m 757 240 l 252 240 l 252 357 l 757 357 l 757 240 m 1276 0 l 779 0 l 779 102 l 1276 102 l 1276 0 m 802 0 l 675 0 l 634 987 l 761 987 l 802 0 m 1179 463 l 751 463 l 751 565 l 1179 565 l 1179 463 m 1234 886 l 737 886 l 737 987 l 1234 987 l 1234 886 z "},"æ":{"ha":1173,"x_min":53,"x_max":1126,"o":"m 507 488 q 470 603 507 561 q 363 646 433 646 q 243 607 288 646 q 198 515 198 568 l 72 528 q 109 641 72 591 q 211 719 145 690 q 363 747 277 747 q 557 682 483 747 q 631 487 631 616 l 631 148 l 507 124 l 507 488 m 536 337 l 359 337 q 260 318 300 337 q 200 269 220 300 q 180 203 180 239 q 214 121 180 155 q 319 87 248 87 q 394 101 355 87 q 464 137 432 115 q 516 184 496 159 q 536 229 536 208 l 602 132 q 545 65 585 99 q 442 8 505 31 q 294 -14 380 -14 q 115 46 178 -14 q 53 206 53 106 q 131 372 53 313 q 357 431 208 431 l 536 431 l 536 337 m 857 -14 q 669 33 746 -14 q 553 163 593 80 q 514 353 514 246 l 514 382 q 555 572 514 490 q 666 702 595 655 q 826 747 737 748 q 1049 659 972 747 q 1126 418 1126 570 l 1126 338 l 581 338 l 581 434 l 1000 434 l 1000 455 q 983 550 1000 507 q 928 620 966 593 q 826 646 890 646 q 721 610 764 646 q 656 515 678 574 q 633 382 633 455 l 633 353 q 657 220 633 280 q 729 124 680 159 q 857 88 779 88 q 987 113 937 88 q 1070 161 1036 138 l 1114 69 q 1066 37 1099 57 q 981 2 1034 18 q 857 -14 929 -14 z "},"Œ":{"ha":1325,"x_min":71,"x_max":1221,"o":"m 448 1002 q 551 997 500 1002 q 647 987 602 993 l 647 881 q 552 894 602 889 q 448 899 501 899 q 315 865 371 899 q 229 764 259 831 q 198 598 198 696 l 198 391 q 229 224 198 292 q 316 122 260 157 q 449 87 372 87 q 552 93 502 87 q 647 106 603 98 l 647 0 q 551 -9 602 -5 q 449 -14 501 -14 q 252 37 336 -14 q 119 180 167 88 q 71 391 71 271 l 71 597 q 119 808 71 717 q 251 950 166 899 q 448 1002 335 1002 m 1221 0 l 700 0 l 700 106 l 1221 106 l 1221 0 m 726 0 l 594 0 l 594 987 l 726 987 l 726 0 m 1152 457 l 700 457 l 700 563 l 1152 563 l 1152 457 m 1215 881 l 700 881 l 700 987 l 1215 987 l 1215 881 z "},"œ":{"ha":1261,"x_min":66,"x_max":1215,"o":"m 935 -14 q 758 33 833 -14 q 643 163 684 80 q 602 353 602 246 l 602 382 q 646 572 602 490 q 761 702 690 655 q 916 747 833 748 q 1083 706 1017 747 q 1182 590 1149 664 q 1215 420 1215 516 l 1215 338 l 677 338 l 677 440 l 1088 440 l 1088 458 q 1069 550 1088 507 q 1013 619 1051 593 q 916 646 975 646 q 819 610 861 646 q 753 515 777 574 q 729 382 729 455 l 729 353 q 752 220 729 280 q 821 124 775 159 q 935 88 867 88 q 1060 109 1009 88 q 1144 161 1110 130 l 1194 77 q 1097 15 1160 43 q 935 -14 1034 -14 m 66 374 q 105 565 66 481 q 218 698 144 649 q 393 747 291 747 q 570 698 497 747 q 683 565 644 649 q 722 374 722 481 l 722 359 q 683 169 722 253 q 571 35 644 84 q 395 -14 498 -14 q 218 35 292 -14 q 105 169 144 84 q 66 359 66 253 l 66 374 m 193 359 q 214 224 193 286 q 280 125 236 163 q 395 88 325 88 q 508 125 464 88 q 574 224 553 163 q 595 359 595 286 l 595 374 q 574 509 595 447 q 508 608 552 570 q 393 646 463 646 q 280 608 325 646 q 214 509 235 570 q 193 374 193 447 l 193 359 z "},"ð":{"ha":814,"x_min":85,"x_max":726,"o":"m 212 1072 q 480 951 364 1038 q 661 732 596 864 q 726 429 726 600 l 726 363 q 685 166 726 252 q 572 34 644 81 q 408 -14 500 -14 q 240 31 313 -14 q 126 150 168 75 q 85 317 85 225 q 125 499 85 422 q 233 620 164 577 q 389 663 302 663 q 527 627 466 663 q 624 534 588 591 q 660 416 660 477 l 612 416 q 601 464 612 439 q 565 511 589 489 q 504 547 541 533 q 419 561 468 561 q 307 531 353 561 q 237 447 261 501 q 212 317 212 392 q 235 209 212 262 q 303 123 258 157 q 411 89 347 89 q 511 125 469 89 q 576 223 553 161 q 599 363 599 285 l 599 431 q 565 640 599 550 q 472 794 532 730 q 336 900 413 858 q 172 964 259 942 l 212 1072 m 306 714 l 256 781 l 621 1028 l 670 961 l 306 714 z "},"Þ":{"ha":821,"x_min":113,"x_max":758,"o":"m 239 987 l 239 0 l 113 0 l 113 987 l 239 987 m 427 789 q 608 751 534 789 q 720 649 682 714 q 758 500 758 584 q 720 353 758 418 q 608 250 682 288 q 427 213 534 213 l 212 213 l 212 315 l 427 315 q 545 341 500 315 q 611 411 590 368 q 631 499 631 453 q 611 590 631 547 q 545 660 590 633 q 427 687 500 687 l 238 687 l 177 789 l 427 789 z "},"þ":{"ha":801,"x_min":101,"x_max":722,"o":"m 228 -282 l 101 -282 l 101 1042 l 228 1042 l 228 -282 m 722 359 q 689 168 722 252 q 592 35 656 83 q 437 -14 528 -14 q 279 27 343 -14 q 180 143 216 68 q 133 320 144 218 l 133 399 q 180 585 144 507 q 280 705 216 663 q 435 747 343 747 q 592 701 528 747 q 689 569 656 654 q 722 373 722 485 l 722 359 m 595 373 q 574 508 595 446 q 510 606 553 569 q 398 642 467 642 q 316 626 351 642 q 257 582 281 610 q 217 520 233 555 q 195 448 202 485 l 195 271 q 232 181 208 223 q 297 114 256 140 q 399 88 338 88 q 510 125 467 88 q 574 224 553 163 q 595 359 595 286 l 595 373 z "},"ẞ":{"ha":897,"x_min":97,"x_max":835,"o":"m 223 0 l 97 0 l 97 652 l 223 652 l 223 0 m 97 651 q 130 845 97 767 q 231 962 163 922 q 402 1001 299 1001 q 595 957 513 1001 q 743 849 677 912 l 455 497 l 385 497 l 385 577 l 593 830 q 516 878 561 857 q 402 899 471 899 q 290 865 328 899 q 237 775 251 831 q 223 651 223 718 l 97 651 m 347 123 q 414 99 375 110 q 501 88 452 88 q 654 140 600 88 q 709 274 709 192 q 684 388 709 344 q 609 454 659 433 q 485 475 559 475 l 385 475 l 385 574 l 488 574 q 744 497 654 574 q 835 277 835 420 q 792 119 835 184 q 674 20 749 54 q 501 -14 599 -14 q 406 -6 454 -14 q 311 20 359 2 l 347 123 z "},"ß":{"ha":826,"x_min":94,"x_max":767,"o":"m 220 0 l 94 0 l 94 754 q 169 978 94 903 q 361 1054 243 1054 q 493 1029 435 1054 q 584 955 551 1005 q 617 825 617 904 q 604 735 617 771 q 574 671 591 699 q 544 618 557 644 q 530 556 530 591 q 554 489 530 519 q 613 432 578 460 q 684 375 648 405 q 743 306 720 345 q 767 215 767 267 q 733 87 767 138 q 641 11 700 36 q 506 -14 582 -14 q 428 -6 469 -14 q 354 12 388 1 q 303 36 321 23 l 332 140 q 400 106 355 125 q 492 88 446 88 q 578 104 545 88 q 625 148 610 121 q 640 209 640 176 q 616 277 640 248 q 557 334 593 307 q 487 392 522 361 q 428 463 452 423 q 404 557 404 503 q 418 629 404 598 q 451 688 433 661 q 484 746 469 715 q 498 815 498 776 q 481 891 498 861 q 435 937 464 921 q 368 952 406 952 q 259 904 298 952 q 220 754 220 857 l 220 0 z "},"ﬁ":{"ha":770,"x_min":21,"x_max":661,"o":"m 137 0 l 137 798 q 209 989 137 923 q 406 1056 281 1056 q 502 1044 455 1056 q 598 1015 549 1032 l 577 910 q 505 933 547 922 q 416 944 464 944 q 299 908 335 944 q 264 798 264 871 l 264 0 l 137 0 m 413 638 l 21 638 l 21 734 l 413 734 l 413 638 m 661 0 l 534 0 l 534 734 l 661 734 l 661 0 z "},"$":{"ha":781,"x_min":75,"x_max":707,"o":"m 458 941 l 355 941 l 355 1147 l 458 1147 l 458 941 m 445 -141 l 344 -141 l 344 39 l 445 39 l 445 -141 m 580 254 q 562 328 580 295 q 502 388 543 360 q 389 438 460 415 q 242 503 304 465 q 146 596 180 541 q 113 732 113 652 q 149 876 113 816 q 250 969 184 937 q 405 1002 316 1002 q 563 965 497 1002 q 663 858 628 928 q 698 684 698 787 l 572 684 q 529 834 572 775 q 405 893 486 893 q 312 873 349 893 q 257 818 275 853 q 239 734 239 782 q 257 659 239 691 q 317 600 275 626 q 433 549 359 574 q 582 483 521 521 q 675 391 643 446 q 707 256 707 336 q 667 108 707 168 q 557 17 628 48 q 390 -14 486 -14 q 276 1 332 -14 q 174 52 220 17 q 102 146 129 87 q 75 291 75 205 l 201 291 q 218 195 201 233 q 262 135 235 157 q 323 103 290 113 q 390 94 357 94 q 493 114 450 94 q 557 170 535 134 q 580 254 580 205 z "},"¢":{"ha":760,"x_min":71,"x_max":690,"o":"m 454 699 l 328 699 l 328 894 l 454 894 l 454 699 m 454 -166 l 328 -166 l 328 28 l 454 28 l 454 -166 m 397 88 q 480 107 442 88 q 543 158 518 125 q 570 232 567 191 l 690 232 q 646 111 687 167 q 541 21 606 55 q 397 -14 475 -14 q 214 37 287 -14 q 106 171 142 87 q 71 353 71 254 l 71 381 q 106 563 71 480 q 215 697 142 646 q 397 747 288 747 q 548 712 484 747 q 650 617 613 677 q 690 481 687 557 l 570 481 q 545 564 567 527 q 485 624 523 602 q 397 646 448 646 q 277 606 321 646 q 215 506 233 567 q 197 381 197 446 l 197 353 q 215 227 197 288 q 276 127 233 166 q 397 88 320 88 z "},"£":{"ha":808,"x_min":62,"x_max":766,"o":"m 64 0 l 64 106 l 766 106 l 765 0 l 64 0 m 62 422 l 62 528 l 517 528 l 517 422 l 62 422 m 311 273 q 292 154 311 209 q 235 70 273 98 l 117 106 q 154 140 140 112 q 173 205 168 169 q 179 272 179 242 l 164 705 q 203 864 164 798 q 311 966 243 930 q 466 1001 380 1001 q 673 928 599 1001 q 747 737 747 855 l 615 737 q 592 829 615 794 q 533 879 570 863 q 455 895 497 895 q 342 846 389 895 q 296 705 296 797 l 311 273 z "},"¥":{"ha":730,"x_min":10,"x_max":720,"o":"m 648 415 l 81 415 l 81 499 l 648 499 l 648 415 m 648 218 l 81 218 l 81 302 l 648 302 l 648 218 m 574 987 l 720 987 l 426 410 l 342 410 l 326 452 l 574 987 m 409 448 l 388 410 l 304 410 l 10 987 l 158 987 l 409 448 m 428 0 l 296 0 l 296 524 l 428 524 l 428 0 z "},"¤":{"ha":990,"x_min":71,"x_max":930,"o":"m 212 412 q 235 292 212 349 q 296 193 257 236 q 388 126 336 150 q 498 102 439 102 q 609 126 557 102 q 701 193 661 150 q 762 292 740 236 q 784 412 784 349 q 762 533 784 477 q 701 631 740 589 q 609 697 661 673 q 498 722 557 722 q 388 697 439 722 q 296 631 336 673 q 235 533 257 589 q 212 412 212 477 m 95 412 q 126 580 95 503 q 213 715 158 657 q 342 805 269 772 q 498 837 415 837 q 655 805 582 837 q 784 715 728 772 q 871 580 840 657 q 902 412 902 503 q 871 245 902 322 q 784 110 840 168 q 655 19 728 52 q 498 -14 582 -14 q 342 19 415 -14 q 213 110 269 52 q 126 245 158 168 q 95 412 95 322 m 793 626 l 703 718 l 840 858 l 930 766 l 793 626 m 161 -18 l 71 74 l 208 213 l 298 122 l 161 -18 m 703 121 l 793 213 l 930 74 l 840 -18 l 703 121 m 71 766 l 161 857 l 298 718 l 208 626 l 71 766 z "},"!":{"ha":359,"x_min":109,"x_max":258,"o":"m 237 279 l 123 279 l 113 987 l 246 987 l 237 279 m 109 63 q 128 114 109 93 q 183 135 146 135 q 239 114 220 135 q 258 63 258 93 q 239 13 258 33 q 183 -7 220 -7 q 128 13 146 -7 q 109 63 109 33 z "},"¡":{"ha":340,"x_min":94,"x_max":243,"o":"m 116 464 l 230 464 l 239 -245 l 106 -245 l 116 464 m 243 676 q 225 625 243 646 q 170 604 206 604 q 114 625 133 604 q 94 676 94 646 q 114 726 94 706 q 170 747 133 747 q 225 726 206 747 q 243 676 243 706 z "},"?":{"ha":657,"x_min":51,"x_max":602,"o":"m 242 278 q 254 385 243 343 q 291 461 265 427 q 359 540 316 496 q 416 600 390 572 q 459 661 443 628 q 475 740 475 693 q 438 851 475 810 q 330 892 401 892 q 224 860 271 892 q 178 756 178 827 l 51 756 q 89 888 52 833 q 189 972 126 943 q 330 1001 252 1001 q 531 932 460 1001 q 602 743 602 863 q 577 631 602 682 q 514 535 553 580 q 432 450 475 490 q 382 372 395 416 q 369 278 369 328 l 242 278 m 237 63 q 256 114 237 93 q 311 135 275 135 q 367 114 348 135 q 386 63 386 93 q 367 13 386 33 q 311 -7 348 -7 q 256 13 275 -7 q 237 63 237 33 z "},"¿":{"ha":658,"x_min":46,"x_max":604,"o":"m 400 461 q 388 356 399 397 q 352 282 376 316 q 285 203 327 248 q 231 143 256 172 q 189 81 205 115 q 173 -1 173 47 q 212 -114 173 -75 q 324 -153 251 -153 q 430 -118 383 -153 q 477 -14 476 -84 l 604 -14 q 566 -146 603 -91 q 466 -232 528 -202 q 324 -262 403 -262 q 119 -194 192 -262 q 46 -4 46 -126 q 71 110 46 58 q 134 208 96 163 q 212 292 172 253 q 250 342 237 316 q 268 398 263 368 q 273 461 273 428 l 400 461 m 405 677 q 386 626 405 647 q 331 605 368 605 q 275 626 294 605 q 256 677 256 647 q 275 727 256 707 q 331 747 294 747 q 386 727 368 747 q 405 677 405 707 z "},",":{"ha":273,"x_min":19,"x_max":210,"o":"m 210 48 q 179 -82 210 -14 q 91 -197 148 -151 l 19 -148 q 56 -87 41 -118 q 78 -24 71 -57 q 86 46 86 9 l 86 149 l 210 149 l 210 48 z "},".":{"ha":367,"x_min":98,"x_max":254,"o":"m 98 66 q 118 120 98 98 q 176 142 138 142 q 234 120 214 142 q 254 66 254 98 q 234 14 254 35 q 176 -7 214 -7 q 118 14 138 -7 q 98 66 98 35 z "},":":{"ha":338,"x_min":90,"x_max":248,"o":"m 90 66 q 110 120 90 98 q 168 142 130 142 q 227 120 207 142 q 247 66 247 98 q 227 14 247 35 q 168 -7 207 -7 q 110 14 130 -7 q 90 66 90 35 m 91 665 q 111 719 91 697 q 169 741 131 741 q 228 719 208 741 q 248 665 248 697 q 228 613 248 634 q 169 592 208 592 q 111 613 131 592 q 91 665 91 634 z "},";":{"ha":294,"x_min":28,"x_max":231,"o":"m 75 665 q 95 719 75 697 q 153 741 115 741 q 211 719 191 741 q 231 665 231 697 q 211 613 231 634 q 153 592 191 592 q 95 613 115 592 q 75 665 75 634 m 219 48 q 188 -82 219 -14 q 100 -197 157 -151 l 28 -148 q 64 -87 50 -118 q 87 -24 79 -57 q 95 46 95 9 l 95 149 l 219 149 l 219 48 z "},"…":{"ha":930,"x_min":100,"x_max":836,"o":"m 100 66 q 120 120 100 98 q 178 142 140 142 q 236 120 216 142 q 256 66 256 98 q 236 14 256 35 q 178 -7 216 -7 q 120 14 140 -7 q 100 66 100 35 m 397 66 q 417 120 397 98 q 475 142 437 142 q 533 120 513 142 q 553 66 553 98 q 533 14 553 35 q 475 -7 513 -7 q 417 14 437 -7 q 397 66 397 35 m 679 66 q 699 120 679 98 q 757 142 719 142 q 815 120 795 142 q 836 66 836 98 q 815 14 836 35 q 757 -7 795 -7 q 699 14 719 -7 q 679 66 679 35 z "},"·":{"ha":363,"x_min":100,"x_max":256,"o":"m 100 494 q 120 548 100 526 q 178 570 140 570 q 236 548 216 570 q 256 494 256 526 q 236 442 256 463 q 178 420 216 420 q 120 442 140 420 q 100 494 100 463 z "},"•":{"ha":469,"x_min":94,"x_max":371,"o":"m 94 524 q 131 620 94 582 q 232 658 168 658 q 334 620 297 658 q 371 524 371 582 l 371 496 q 334 401 371 438 q 233 363 297 363 q 132 401 169 363 q 94 496 94 438 l 94 524 z "},"_":{"ha":627,"x_min":3,"x_max":625,"o":"m 625 -102 l 3 -102 l 3 0 l 625 0 l 625 -102 z "},"-":{"ha":383,"x_min":25,"x_max":357,"o":"m 357 369 l 25 369 l 25 471 l 357 471 l 357 369 z "},"–":{"ha":911,"x_min":110,"x_max":789,"o":"m 789 442 l 110 442 l 110 544 l 789 544 l 789 442 z "},"—":{"ha":1084,"x_min":98,"x_max":1004,"o":"m 1004 442 l 98 442 l 98 544 l 1004 544 l 1004 442 z "},"'":{"ha":243,"x_min":70,"x_max":173,"o":"m 173 966 l 158 718 l 70 718 l 71 956 l 71 1042 l 173 1042 l 173 966 z "},"\"":{"ha":446,"x_min":92,"x_max":372,"o":"m 189 949 l 168 708 l 92 708 l 93 943 l 93 1042 l 189 1042 l 189 949 m 372 949 l 352 708 l 276 708 l 277 948 l 277 1042 l 372 1042 l 372 949 z "},"‘":{"ha":279,"x_min":65,"x_max":256,"o":"m 65 810 q 79 897 65 852 q 120 983 93 941 q 184 1055 146 1025 l 256 1006 q 208 915 224 962 q 191 812 191 867 l 191 728 l 65 728 l 65 810 z "},"’":{"ha":279,"x_min":33,"x_max":223,"o":"m 223 955 q 209 869 223 914 q 169 783 195 824 q 104 710 142 741 l 33 759 q 81 851 64 804 q 98 954 98 898 l 98 1042 l 223 1042 l 223 955 z "},"‚":{"ha":277,"x_min":24,"x_max":215,"o":"m 215 54 q 201 -32 215 13 q 161 -119 187 -77 q 96 -191 134 -160 l 24 -142 q 73 -50 56 -98 q 89 52 89 -3 l 89 124 l 215 124 l 215 54 z "},"“":{"ha":493,"x_min":71,"x_max":477,"o":"m 71 810 q 85 897 71 852 q 126 983 99 941 q 191 1055 153 1025 l 262 1006 q 214 915 231 962 q 197 812 197 867 l 197 728 l 71 728 l 71 810 m 286 810 q 299 897 286 852 q 340 983 313 941 q 405 1055 367 1025 l 477 1006 q 428 915 445 962 q 411 812 411 867 l 411 728 l 286 728 l 286 810 z "},"”":{"ha":498,"x_min":41,"x_max":440,"o":"m 231 955 q 217 869 231 914 q 177 783 203 824 q 113 710 151 741 l 41 759 q 89 851 73 804 q 106 954 106 898 l 106 1042 l 231 1042 l 231 955 m 440 955 q 426 869 440 914 q 386 783 412 824 q 321 710 359 741 l 250 759 q 298 851 281 804 q 315 954 315 898 l 315 1042 l 440 1042 l 440 955 z "},"„":{"ha":481,"x_min":24,"x_max":417,"o":"m 215 54 q 201 -37 215 11 q 161 -127 187 -84 q 96 -203 134 -171 l 24 -155 q 73 -57 56 -107 q 89 52 89 -7 l 89 167 l 215 167 l 215 54 m 417 54 q 403 -37 417 11 q 363 -127 389 -84 q 298 -203 336 -171 l 227 -155 q 274 -57 258 -107 q 290 52 290 -7 l 290 167 l 417 167 l 417 54 z "},"(":{"ha":476,"x_min":90,"x_max":450,"o":"m 90 401 q 123 668 90 549 q 209 879 157 788 q 318 1028 260 969 q 423 1114 375 1088 l 450 1032 q 369 948 410 1002 q 294 815 328 894 q 238 634 259 737 q 217 403 217 531 l 217 393 q 238 161 217 264 q 294 -21 259 58 q 369 -155 328 -100 q 450 -243 410 -211 l 423 -319 q 318 -233 375 -292 q 209 -83 260 -174 q 123 126 157 7 q 90 394 90 246 l 90 401 z "},")":{"ha":484,"x_min":26,"x_max":385,"o":"m 385 394 q 352 126 385 246 q 267 -83 319 7 q 158 -233 216 -174 q 53 -319 101 -292 l 26 -243 q 107 -158 66 -213 q 182 -23 148 -103 q 238 160 217 56 q 259 393 259 264 l 259 403 q 237 635 259 531 q 179 819 214 740 q 103 954 143 899 q 26 1038 62 1008 l 53 1114 q 158 1028 101 1088 q 267 879 216 969 q 352 668 319 788 q 385 401 385 549 l 385 394 z "},"[":{"ha":370,"x_min":99,"x_max":355,"o":"m 355 1027 l 226 1027 l 226 -110 l 355 -110 l 355 -212 l 99 -212 l 99 1128 l 355 1128 l 355 1027 z "},"]":{"ha":370,"x_min":7,"x_max":264,"o":"m 7 1128 l 264 1128 l 264 -212 l 7 -212 l 7 -110 l 137 -110 l 137 1027 l 7 1027 l 7 1128 z "},"{":{"ha":471,"x_min":43,"x_max":455,"o":"m 455 1006 q 345 916 375 981 q 314 768 314 851 l 314 627 q 286 504 314 559 q 199 416 258 449 q 43 384 140 384 l 43 466 q 154 510 120 466 q 187 627 187 553 l 187 768 q 209 901 187 839 q 284 1010 231 963 q 429 1083 336 1057 l 455 1006 m 429 -249 q 284 -176 336 -222 q 209 -67 231 -129 q 187 66 187 -5 l 187 207 q 154 324 187 280 q 43 368 120 368 l 43 450 q 199 418 140 450 q 286 330 258 385 q 314 207 314 275 l 314 66 q 345 -81 314 -17 q 455 -172 375 -146 l 429 -249 z "},"}":{"ha":471,"x_min":14,"x_max":425,"o":"m 40 1083 q 185 1010 133 1057 q 260 901 238 963 q 281 768 281 839 l 281 627 q 315 510 281 553 q 425 466 349 466 l 425 390 q 270 421 330 390 q 182 506 210 452 q 155 627 155 559 l 155 768 q 124 916 155 851 q 14 1006 94 981 l 40 1083 m 14 -172 q 124 -81 94 -146 q 155 66 155 -17 l 155 207 q 182 329 155 275 q 270 413 210 382 q 425 444 330 444 l 425 368 q 315 324 349 368 q 281 207 281 280 l 281 66 q 260 -67 281 -5 q 185 -176 238 -129 q 40 -249 133 -222 l 14 -172 z "},"‹":{"ha":417,"x_min":73,"x_max":370,"o":"m 193 371 l 73 372 l 73 380 l 273 644 l 370 644 l 193 371 m 370 104 l 273 104 l 73 368 l 73 376 l 193 377 l 370 104 z "},"›":{"ha":417,"x_min":61,"x_max":357,"o":"m 237 376 l 357 376 l 357 367 l 157 104 l 61 104 l 237 376 m 157 644 l 357 380 l 357 371 l 237 370 l 61 644 l 157 644 z "},"+":{"ha":788,"x_min":53,"x_max":730,"o":"m 730 412 l 53 412 l 53 529 l 730 529 l 730 412 m 455 99 l 328 99 l 328 818 l 455 818 l 455 99 z "},"−":{"ha":794,"x_min":114,"x_max":680,"o":"m 680 442 l 114 442 l 114 544 l 680 544 l 680 442 z "},"±":{"ha":743,"x_min":66,"x_max":687,"o":"m 687 477 l 66 477 l 66 579 l 687 579 l 687 477 m 441 196 l 327 196 l 327 859 l 441 859 l 441 196 m 658 1 l 92 1 l 92 102 l 658 102 l 658 1 z "},"×":{"ha":741,"x_min":60,"x_max":671,"o":"m 60 221 l 589 760 l 670 677 l 142 138 l 60 221 m 62 677 l 143 760 l 671 221 l 590 138 l 62 677 z "},"÷":{"ha":793,"x_min":48,"x_max":725,"o":"m 725 408 l 48 408 l 48 532 l 725 532 l 725 408 m 313 745 q 332 799 313 777 q 391 821 352 821 q 449 799 429 821 q 469 745 469 777 q 449 692 469 713 q 391 671 429 671 q 332 692 352 671 q 313 745 313 713 m 313 191 q 332 245 313 223 q 391 267 352 267 q 449 245 429 267 q 469 191 469 223 q 449 139 469 160 q 391 117 429 117 q 332 139 352 117 q 313 191 313 160 z "},"=":{"ha":762,"x_min":103,"x_max":669,"o":"m 669 553 l 103 553 l 103 661 l 669 661 l 669 553 m 669 271 l 103 271 l 103 379 l 669 379 l 669 271 z "},"<":{"ha":706,"x_min":49,"x_max":604,"o":"m 604 265 l 604 133 l 49 390 l 49 468 l 136 456 l 604 265 m 136 419 l 49 410 l 49 488 l 604 745 l 604 613 l 136 419 z "},">":{"ha":726,"x_min":92,"x_max":671,"o":"m 92 617 l 92 745 l 671 489 l 671 411 l 574 429 l 92 617 m 574 456 l 671 469 l 671 391 l 92 134 l 92 263 l 574 456 z "},"¬":{"ha":770,"x_min":86,"x_max":650,"o":"m 650 434 l 86 434 l 86 543 l 650 543 l 650 434 m 650 255 l 524 255 l 524 492 l 650 492 l 650 255 z "},"∕":{"ha":530,"x_min":12,"x_max":532,"o":"m 121 -85 l 12 -85 l 425 987 l 532 987 l 121 -85 z "},"/":{"ha":574,"x_min":12,"x_max":532,"o":"m 121 -85 l 12 -85 l 425 987 l 532 987 l 121 -85 z "},"\\":{"ha":570,"x_min":28,"x_max":560,"o":"m 28 987 l 148 987 l 560 -85 l 440 -85 l 28 987 z "},"⁄":{"ha":631,"x_min":41,"x_max":594,"o":"m 112 75 l 41 120 l 523 892 l 594 847 l 112 75 z "},"%":{"ha":1017,"x_min":71,"x_max":957,"o":"m 71 798 q 96 900 71 854 q 165 974 120 946 q 273 1002 211 1002 q 382 974 337 1002 q 452 900 428 946 q 477 798 477 854 l 477 745 q 452 644 477 690 q 383 570 428 598 q 275 543 338 543 q 166 570 212 543 q 96 644 120 598 q 71 745 71 690 l 71 798 m 166 745 q 178 686 166 714 q 214 641 190 659 q 275 624 238 624 q 335 641 311 624 q 370 686 359 659 q 382 745 382 714 l 382 798 q 370 858 382 829 q 334 903 358 886 q 273 920 310 920 q 214 903 237 920 q 178 858 190 886 q 166 798 166 829 l 166 745 m 552 242 q 576 344 552 298 q 646 418 601 390 q 754 446 691 446 q 863 418 818 446 q 932 344 908 390 q 957 242 957 298 l 957 189 q 933 87 957 134 q 864 14 909 41 q 755 -14 819 -14 q 647 14 692 -14 q 576 87 601 41 q 552 189 552 134 l 552 242 m 646 189 q 658 130 646 158 q 694 84 670 102 q 755 67 719 67 q 816 84 792 67 q 851 130 840 102 q 863 189 863 157 l 863 242 q 836 327 863 290 q 754 364 809 364 q 673 327 700 364 q 646 242 646 290 l 646 189 m 303 75 l 232 120 l 714 892 l 785 847 l 303 75 z "},"|":{"ha":340,"x_min":119,"x_max":221,"o":"m 221 -183 l 119 -183 l 119 987 l 221 987 l 221 -183 z "},"¦":{"ha":334,"x_min":100,"x_max":227,"o":"m 100 -183 l 100 353 l 227 353 l 227 -183 l 100 -183 m 227 473 l 100 473 l 100 987 l 227 987 l 227 473 z "},"©":{"ha":1091,"x_min":62,"x_max":1024,"o":"m 759 406 q 699 246 759 299 q 534 193 638 193 q 362 266 426 193 q 299 455 299 338 l 299 533 q 362 723 299 650 q 534 795 426 795 q 699 743 638 795 q 760 583 760 690 l 661 583 q 628 680 661 650 q 534 709 596 709 q 459 687 490 709 q 413 625 429 664 q 397 534 397 585 l 397 455 q 432 328 397 377 q 534 279 467 279 q 628 308 596 279 q 660 406 660 337 l 759 406 m 140 494 q 172 326 140 404 q 258 190 203 248 q 387 99 314 132 q 543 66 460 66 q 700 99 627 66 q 828 190 772 132 q 914 326 883 248 q 945 494 945 404 q 914 663 945 585 q 828 798 883 740 q 700 888 772 856 q 543 920 627 920 q 387 888 460 920 q 258 798 314 856 q 172 663 203 740 q 140 494 140 585 m 62 494 q 99 694 62 602 q 203 856 136 787 q 356 963 269 924 q 543 1001 444 1001 q 730 963 643 1001 q 883 856 817 924 q 987 694 949 787 q 1024 494 1024 602 q 987 294 1024 387 q 883 133 949 202 q 730 24 817 63 q 543 -14 643 -14 q 356 24 444 -14 q 203 133 269 63 q 99 294 136 202 q 62 494 62 387 z "},"®":{"ha":1091,"x_min":61,"x_max":1024,"o":"m 413 444 l 412 530 l 549 530 q 624 552 591 532 q 657 613 657 573 q 630 684 657 664 q 534 705 603 705 l 443 705 l 443 215 l 347 215 l 347 790 l 534 790 q 694 747 635 790 q 753 617 753 704 q 715 525 753 562 q 606 467 677 487 q 602 463 604 467 q 597 458 600 458 q 583 449 586 452 q 577 445 580 446 q 560 444 574 444 l 413 444 m 567 505 q 711 461 672 505 q 749 349 749 416 l 749 312 q 752 264 749 287 q 761 226 755 241 l 761 215 l 662 215 q 654 265 655 233 q 653 313 653 298 l 653 348 q 630 421 653 397 q 553 444 608 444 l 567 505 m 140 494 q 171 326 140 404 q 258 190 202 248 q 386 99 313 132 q 543 66 459 66 q 699 99 626 66 q 827 190 772 132 q 913 326 882 248 q 945 494 945 404 q 913 663 945 585 q 827 798 882 740 q 699 888 772 856 q 543 920 626 920 q 386 888 459 920 q 258 798 313 856 q 171 663 202 740 q 140 494 140 585 m 61 494 q 98 694 61 602 q 202 856 136 787 q 356 963 269 924 q 543 1001 443 1001 q 729 963 642 1001 q 883 856 817 924 q 987 694 949 787 q 1024 494 1024 602 q 987 294 1024 387 q 883 133 949 202 q 729 24 817 63 q 543 -14 642 -14 q 356 24 443 -14 q 202 133 269 63 q 98 294 136 202 q 61 494 61 387 z "},"°":{"ha":519,"x_min":89,"x_max":432,"o":"m 89 825 q 113 913 89 873 q 176 978 136 954 q 262 1002 215 1002 q 347 978 309 1002 q 409 913 386 954 q 432 825 432 873 q 409 738 432 777 q 347 675 386 698 q 262 652 309 652 q 176 675 215 652 q 113 738 136 698 q 89 825 89 777 m 174 825 q 199 763 174 788 q 262 738 225 738 q 323 763 298 738 q 347 825 347 788 q 323 890 347 864 q 262 916 298 916 q 199 890 225 916 q 174 825 174 864 z "},"*":{"ha":598,"x_min":19,"x_max":579,"o":"m 223 667 l 19 729 l 51 830 l 255 754 l 249 988 l 353 988 l 347 751 l 547 826 l 579 723 l 372 661 l 505 477 l 420 414 l 295 610 l 173 418 l 87 480 l 223 667 z "},"#":{"ha":857,"x_min":81,"x_max":838,"o":"m 382 987 l 479 987 l 287 0 l 189 0 l 382 987 m 658 987 l 756 987 l 563 0 l 465 0 l 658 987 m 133 612 l 133 705 l 838 705 l 838 612 l 133 612 m 81 278 l 81 371 l 787 371 l 787 278 l 81 278 z "},"&":{"ha":864,"x_min":68,"x_max":860,"o":"m 426 653 q 492 712 469 682 q 515 793 515 742 q 484 866 515 833 q 396 899 453 899 q 306 860 336 899 q 276 766 276 820 q 309 669 276 720 q 393 560 341 618 l 860 0 l 708 0 l 326 459 q 199 617 249 548 q 149 762 149 686 q 180 892 149 839 q 267 973 211 945 q 397 1001 322 1001 q 522 972 469 1001 q 604 896 575 943 q 632 793 632 849 q 615 708 632 745 q 568 639 598 670 q 498 578 538 608 l 302 433 q 231 364 253 397 q 202 306 208 331 q 195 265 195 280 q 216 177 195 217 q 280 112 237 136 q 389 88 323 88 q 498 115 445 88 q 595 190 552 141 q 663 306 637 239 q 688 456 688 374 l 802 456 q 773 271 802 355 q 681 125 743 187 q 671 111 675 119 q 662 97 668 103 q 537 14 611 41 q 389 -14 463 -14 q 218 22 290 -14 q 107 121 146 58 q 68 265 68 184 q 96 375 68 328 q 170 464 123 422 q 278 548 217 505 l 426 653 z "},"@":{"ha":1246,"x_min":71,"x_max":1185,"o":"m 1177 341 q 1158 216 1174 279 q 1109 101 1142 153 q 1025 17 1076 49 q 899 -14 973 -14 q 761 50 805 -14 q 727 223 716 115 l 762 599 l 862 599 l 827 223 q 830 143 823 174 q 850 95 836 112 q 880 73 863 79 q 913 66 897 66 q 1006 103 968 66 q 1065 203 1044 140 q 1088 341 1086 265 q 1053 631 1097 510 q 910 817 1008 752 q 654 882 811 882 q 408 811 512 882 q 244 616 303 741 q 177 324 184 490 q 197 96 171 197 q 278 -76 223 -5 q 417 -185 334 -148 q 608 -223 500 -223 q 729 -209 668 -223 q 832 -170 790 -195 l 858 -247 q 740 -292 810 -277 q 605 -307 669 -307 q 313 -231 433 -307 q 131 -12 192 -154 q 78 324 71 130 q 127 582 84 464 q 246 787 170 699 q 425 922 321 874 q 656 970 529 970 q 949 893 831 970 q 1126 675 1068 817 q 1177 341 1185 534 m 481 283 q 486 175 475 220 q 522 106 496 130 q 587 83 547 83 q 642 100 613 83 q 697 157 671 118 q 740 260 724 197 l 785 212 q 690 43 753 101 q 555 -14 626 -14 q 445 23 489 -14 q 383 127 401 60 q 373 283 365 195 q 427 490 384 403 q 533 624 470 576 q 666 671 597 671 q 782 650 740 671 q 862 599 824 629 l 804 533 q 752 568 784 551 q 677 585 721 585 q 587 551 628 585 q 518 450 545 517 q 481 283 490 383 z "},"§":{"ha":852,"x_min":61,"x_max":777,"o":"m 474 153 q 604 192 558 153 q 650 290 650 231 q 628 362 650 333 q 554 417 606 392 q 409 469 501 441 q 240 529 311 496 q 133 616 170 563 q 96 753 96 669 q 137 884 96 829 q 252 971 178 940 q 428 1002 327 1002 q 672 926 583 1002 q 762 709 762 851 l 635 709 q 611 805 635 762 q 541 873 587 848 q 428 899 495 899 q 272 857 321 899 q 222 755 222 814 q 242 680 222 709 q 313 628 261 651 q 459 579 364 606 q 631 517 560 551 q 740 430 703 483 q 777 292 777 377 q 694 132 777 190 q 474 74 612 74 l 474 153 m 356 511 q 232 472 272 511 q 192 375 192 433 q 212 300 192 330 q 283 247 231 270 q 432 196 336 223 q 603 135 532 168 q 710 50 673 102 q 747 -87 747 -3 q 656 -271 747 -205 q 416 -336 566 -336 q 288 -321 351 -336 q 173 -272 224 -306 q 92 -182 122 -238 q 61 -43 61 -125 l 188 -42 q 208 -133 188 -96 q 262 -192 229 -170 q 335 -224 295 -214 q 416 -234 376 -234 q 567 -192 513 -234 q 620 -89 620 -151 q 598 -18 620 -47 q 525 35 577 11 q 382 86 473 59 q 212 147 283 113 q 103 236 141 182 q 65 374 65 290 q 144 533 65 473 q 356 593 223 593 l 356 511 z "},"¶":{"ha":680,"x_min":45,"x_max":566,"o":"m 438 0 l 438 353 l 379 353 q 197 394 271 353 q 84 507 123 435 q 45 670 45 578 q 84 833 45 761 q 197 946 123 905 q 379 987 271 987 l 566 987 l 566 0 l 438 0 z "},"^":{"ha":581,"x_min":43,"x_max":535,"o":"m 161 494 l 43 494 l 246 987 l 322 987 l 298 844 l 161 494 m 281 844 l 256 987 l 333 987 l 535 494 l 418 494 l 281 844 z "},"~":{"ha":945,"x_min":89,"x_max":857,"o":"m 857 527 q 828 400 857 458 q 751 308 800 342 q 637 273 701 273 q 532 297 577 273 q 435 368 487 321 q 371 417 400 399 q 308 435 342 435 q 228 398 256 435 q 199 297 199 361 l 89 296 q 117 423 89 367 q 194 511 144 479 q 308 544 243 544 q 414 519 368 544 q 511 450 460 494 q 575 399 547 416 q 637 382 604 382 q 721 423 689 382 q 753 527 753 463 l 857 527 z "},"Á":{"ha":907,"x_min":19,"x_max":889,"o":"m 155 0 l 19 0 l 396 987 l 483 987 l 481 901 l 155 0 m 427 901 l 425 987 l 511 987 l 889 0 l 754 0 l 427 901 m 738 258 l 182 258 l 182 365 l 738 365 l 738 258 m 525 1253 l 677 1253 l 495 1054 l 393 1054 l 525 1253 z "},"Â":{"ha":907,"x_min":19,"x_max":889,"o":"m 155 0 l 19 0 l 396 987 l 483 987 l 481 901 l 155 0 m 427 901 l 425 987 l 511 987 l 889 0 l 754 0 l 427 901 m 738 258 l 182 258 l 182 365 l 738 365 l 738 258 m 663 1067 l 663 1061 l 558 1061 l 456 1176 l 355 1061 l 252 1061 l 252 1068 l 418 1253 l 494 1253 l 663 1067 z "},"Ä":{"ha":907,"x_min":19,"x_max":889,"o":"m 155 0 l 19 0 l 396 987 l 483 987 l 481 901 l 155 0 m 427 901 l 425 987 l 511 987 l 889 0 l 754 0 l 427 901 m 738 258 l 182 258 l 182 365 l 738 365 l 738 258 m 237 1141 q 256 1192 237 1171 q 312 1213 275 1213 q 368 1192 349 1213 q 387 1141 387 1171 q 368 1092 387 1112 q 312 1071 349 1071 q 256 1092 275 1071 q 237 1141 237 1112 m 530 1140 q 548 1191 530 1170 q 604 1212 567 1212 q 660 1191 640 1212 q 679 1140 679 1170 q 660 1090 679 1111 q 604 1069 640 1069 q 548 1090 567 1069 q 530 1140 530 1111 z "},"À":{"ha":907,"x_min":19,"x_max":889,"o":"m 155 0 l 19 0 l 396 987 l 483 987 l 481 901 l 155 0 m 427 901 l 425 987 l 511 987 l 889 0 l 754 0 l 427 901 m 738 258 l 182 258 l 182 365 l 738 365 l 738 258 m 517 1054 l 408 1054 l 233 1253 l 386 1253 l 517 1054 z "},"Å":{"ha":907,"x_min":19,"x_max":889,"o":"m 155 0 l 19 0 l 396 987 l 483 987 l 481 901 l 155 0 m 427 901 l 425 987 l 511 987 l 889 0 l 754 0 l 427 901 m 738 258 l 182 258 l 182 365 l 738 365 l 738 258 m 310 1173 q 352 1273 310 1232 q 456 1314 394 1314 q 560 1273 518 1314 q 602 1173 602 1232 q 560 1075 602 1114 q 456 1036 518 1036 q 352 1075 394 1036 q 310 1173 310 1114 m 378 1173 q 400 1119 378 1143 q 456 1095 422 1095 q 513 1119 491 1095 q 535 1173 535 1143 q 513 1230 535 1205 q 456 1254 491 1254 q 400 1230 422 1254 q 378 1173 378 1205 z "},"Ã":{"ha":907,"x_min":19,"x_max":889,"o":"m 155 0 l 19 0 l 396 987 l 483 987 l 481 901 l 155 0 m 427 901 l 425 987 l 511 987 l 889 0 l 754 0 l 427 901 m 738 258 l 182 258 l 182 365 l 738 365 l 738 258 z "},"Ç":{"ha":904,"x_min":81,"x_max":842,"o":"m 842 313 q 788 146 831 220 q 665 29 745 72 q 467 -14 586 -14 q 264 43 351 -14 q 129 203 177 100 q 81 444 81 306 l 81 543 q 129 784 81 682 q 267 944 178 887 q 479 1001 357 1001 q 668 959 591 1001 q 788 843 745 918 q 842 671 831 768 l 710 671 q 644 834 695 774 q 479 895 593 895 q 332 851 391 895 q 243 728 273 807 q 213 545 213 650 l 213 444 q 240 267 213 347 q 323 140 267 187 q 467 92 379 92 q 599 119 550 92 q 674 195 648 145 q 710 313 699 244 l 842 313 m 510 -7 l 502 -43 q 573 -75 541 -50 q 606 -160 606 -101 q 553 -263 606 -224 q 399 -302 500 -302 l 395 -230 q 451 -223 426 -230 q 492 -201 477 -216 q 507 -163 507 -186 q 481 -116 507 -128 q 398 -98 455 -103 l 419 -7 l 510 -7 z "},"É":{"ha":789,"x_min":115,"x_max":742,"o":"m 742 0 l 220 0 l 220 106 l 742 106 l 742 0 m 246 0 l 115 0 l 115 987 l 246 987 l 246 0 m 673 457 l 220 457 l 220 563 l 673 563 l 673 457 m 735 881 l 220 881 l 220 987 l 735 987 l 735 881 m 488 1260 l 641 1260 l 458 1061 l 357 1061 l 488 1260 z "},"Ê":{"ha":789,"x_min":115,"x_max":742,"o":"m 742 0 l 220 0 l 220 106 l 742 106 l 742 0 m 246 0 l 115 0 l 115 987 l 246 987 l 246 0 m 673 457 l 220 457 l 220 563 l 673 563 l 673 457 m 735 881 l 220 881 l 220 987 l 735 987 l 735 881 m 626 1075 l 626 1068 l 522 1068 l 420 1183 l 319 1068 l 215 1068 l 215 1076 l 382 1260 l 458 1260 l 626 1075 z "},"Ë":{"ha":789,"x_min":115,"x_max":742,"o":"m 742 0 l 220 0 l 220 106 l 742 106 l 742 0 m 246 0 l 115 0 l 115 987 l 246 987 l 246 0 m 673 457 l 220 457 l 220 563 l 673 563 l 673 457 m 735 881 l 220 881 l 220 987 l 735 987 l 735 881 m 201 1149 q 220 1200 201 1179 q 275 1221 239 1221 q 331 1200 312 1221 q 350 1149 350 1179 q 331 1099 350 1120 q 275 1078 312 1078 q 220 1099 239 1078 q 201 1149 201 1120 m 493 1147 q 512 1198 493 1177 q 567 1219 530 1219 q 623 1198 604 1219 q 642 1147 642 1177 q 623 1098 642 1118 q 567 1077 604 1077 q 512 1098 530 1077 q 493 1147 493 1118 z "},"È":{"ha":789,"x_min":115,"x_max":742,"o":"m 742 0 l 220 0 l 220 106 l 742 106 l 742 0 m 246 0 l 115 0 l 115 987 l 246 987 l 246 0 m 673 457 l 220 457 l 220 563 l 673 563 l 673 457 m 735 881 l 220 881 l 220 987 l 735 987 l 735 881 m 480 1061 l 372 1061 l 196 1260 l 349 1260 l 480 1061 z "},"Ð":{"ha":911,"x_min":4,"x_max":829,"o":"m 176 0 l 177 106 l 382 106 q 557 150 487 106 q 664 275 628 195 q 699 464 699 355 l 699 525 q 664 718 699 638 q 559 839 628 797 q 393 881 491 881 l 172 881 l 172 987 l 393 987 q 622 931 524 987 q 774 770 720 874 q 829 524 829 666 l 829 464 q 774 217 829 321 q 619 57 720 113 q 382 0 519 0 l 176 0 m 246 0 l 115 0 l 115 987 l 246 987 l 246 0 m 437 452 l 4 452 l 4 553 l 437 553 l 437 452 z "},"Í":{"ha":378,"x_min":124,"x_max":410,"o":"m 256 0 l 124 0 l 124 987 l 256 987 l 256 0 m 258 1260 l 410 1260 l 228 1061 l 126 1061 l 258 1260 z "},"Î":{"ha":378,"x_min":-16,"x_max":395,"o":"m 256 0 l 124 0 l 124 987 l 256 987 l 256 0 m 395 1075 l 395 1068 l 291 1068 l 189 1183 l 88 1068 l -16 1068 l -16 1076 l 151 1260 l 227 1260 l 395 1075 z "},"Ï":{"ha":378,"x_min":-30,"x_max":412,"o":"m 256 0 l 124 0 l 124 987 l 256 987 l 256 0 m -30 1149 q -11 1200 -30 1179 q 45 1221 8 1221 q 100 1200 81 1221 q 119 1149 119 1179 q 100 1099 119 1120 q 45 1078 81 1078 q -11 1099 8 1078 q -30 1149 -30 1120 m 262 1147 q 281 1198 262 1177 q 336 1219 300 1219 q 392 1198 373 1219 q 412 1147 412 1177 q 392 1098 412 1118 q 336 1077 373 1077 q 281 1098 300 1077 q 262 1147 262 1118 z "},"Ì":{"ha":378,"x_min":-35,"x_max":256,"o":"m 256 0 l 124 0 l 124 987 l 256 987 l 256 0 m 250 1061 l 141 1061 l -35 1260 l 119 1260 l 250 1061 z "},"Ñ":{"ha":991,"x_min":115,"x_max":874,"o":"m 874 0 l 742 0 l 246 764 l 246 0 l 115 0 l 115 987 l 246 987 l 744 222 l 744 987 l 874 987 l 874 0 z "},"Ó":{"ha":956,"x_min":80,"x_max":875,"o":"m 875 462 q 826 208 875 314 q 688 44 777 101 q 479 -14 600 -14 q 272 44 362 -14 q 131 208 182 101 q 80 462 80 314 l 80 525 q 131 780 80 673 q 271 944 181 886 q 477 1001 361 1001 q 687 944 598 1001 q 826 780 777 886 q 875 525 875 673 l 875 462 m 745 526 q 713 725 745 644 q 621 848 681 806 q 477 890 562 890 q 337 848 397 890 q 244 725 277 806 q 211 526 211 644 l 211 462 q 244 262 211 343 q 338 138 277 180 q 479 96 398 96 q 623 138 564 96 q 713 262 682 180 q 745 462 745 343 l 745 526 m 548 1254 l 701 1254 l 518 1055 l 416 1055 l 548 1254 z "},"Ô":{"ha":956,"x_min":80,"x_max":875,"o":"m 875 462 q 826 208 875 314 q 688 44 777 101 q 479 -14 600 -14 q 272 44 362 -14 q 131 208 182 101 q 80 462 80 314 l 80 525 q 131 780 80 673 q 271 944 181 886 q 477 1001 361 1001 q 687 944 598 1001 q 826 780 777 886 q 875 525 875 673 l 875 462 m 745 526 q 713 725 745 644 q 621 848 681 806 q 477 890 562 890 q 337 848 397 890 q 244 725 277 806 q 211 526 211 644 l 211 462 q 244 262 211 343 q 338 138 277 180 q 479 96 398 96 q 623 138 564 96 q 713 262 682 180 q 745 462 745 343 l 745 526 m 686 1069 l 686 1062 l 581 1062 l 479 1177 l 378 1062 l 275 1062 l 275 1069 l 441 1254 l 517 1254 l 686 1069 z "},"Ö":{"ha":956,"x_min":80,"x_max":875,"o":"m 875 462 q 826 208 875 314 q 688 44 777 101 q 479 -14 600 -14 q 272 44 362 -14 q 131 208 182 101 q 80 462 80 314 l 80 525 q 131 780 80 673 q 271 944 181 886 q 477 1001 361 1001 q 687 944 598 1001 q 826 780 777 886 q 875 525 875 673 l 875 462 m 745 526 q 713 725 745 644 q 621 848 681 806 q 477 890 562 890 q 337 848 397 890 q 244 725 277 806 q 211 526 211 644 l 211 462 q 244 262 211 343 q 338 138 277 180 q 479 96 398 96 q 623 138 564 96 q 713 262 682 180 q 745 462 745 343 l 745 526 m 260 1143 q 279 1194 260 1173 q 335 1215 298 1215 q 391 1194 372 1215 q 410 1143 410 1173 q 391 1093 410 1114 q 335 1072 372 1072 q 279 1093 298 1072 q 260 1143 260 1114 m 553 1141 q 571 1192 553 1171 q 627 1213 590 1213 q 683 1192 663 1213 q 702 1141 702 1171 q 683 1092 702 1112 q 627 1071 663 1071 q 571 1092 590 1071 q 553 1141 553 1112 z "},"Ò":{"ha":956,"x_min":80,"x_max":875,"o":"m 875 462 q 826 208 875 314 q 688 44 777 101 q 479 -14 600 -14 q 272 44 362 -14 q 131 208 182 101 q 80 462 80 314 l 80 525 q 131 780 80 673 q 271 944 181 886 q 477 1001 361 1001 q 687 944 598 1001 q 826 780 777 886 q 875 525 875 673 l 875 462 m 745 526 q 713 725 745 644 q 621 848 681 806 q 477 890 562 890 q 337 848 397 890 q 244 725 277 806 q 211 526 211 644 l 211 462 q 244 262 211 343 q 338 138 277 180 q 479 96 398 96 q 623 138 564 96 q 713 262 682 180 q 745 462 745 343 l 745 526 m 540 1055 l 431 1055 l 256 1254 l 409 1254 l 540 1055 z "},"Ø":{"ha":956,"x_min":80,"x_max":888,"o":"m 209 -63 l 111 -63 l 793 1028 l 888 1028 l 209 -63 m 875 462 q 826 208 875 314 q 688 44 777 101 q 479 -14 600 -14 q 272 44 362 -14 q 131 208 182 101 q 80 462 80 314 l 80 525 q 131 780 80 673 q 271 944 181 886 q 477 1001 361 1001 q 687 944 598 1001 q 826 780 777 886 q 875 525 875 673 l 875 462 m 745 526 q 713 725 745 644 q 621 848 681 806 q 477 890 562 890 q 337 848 397 890 q 244 725 277 806 q 211 526 211 644 l 211 462 q 244 262 211 343 q 338 138 277 180 q 479 96 398 96 q 623 138 564 96 q 713 262 682 180 q 745 462 745 343 l 745 526 z "},"Õ":{"ha":956,"x_min":80,"x_max":875,"o":"m 875 462 q 826 208 875 314 q 688 44 777 101 q 479 -14 600 -14 q 272 44 362 -14 q 131 208 182 101 q 80 462 80 314 l 80 525 q 131 780 80 673 q 271 944 181 886 q 477 1001 361 1001 q 687 944 598 1001 q 826 780 777 886 q 875 525 875 673 l 875 462 m 745 526 q 713 725 745 644 q 621 848 681 806 q 477 890 562 890 q 337 848 397 890 q 244 725 277 806 q 211 526 211 644 l 211 462 q 244 262 211 343 q 338 138 277 180 q 479 96 398 96 q 623 138 564 96 q 713 262 682 180 q 745 462 745 343 l 745 526 z "},"Ú":{"ha":901,"x_min":95,"x_max":810,"o":"m 810 987 l 810 319 q 761 134 810 208 q 629 23 711 60 q 452 -14 547 -14 q 270 23 351 -14 q 142 134 189 60 q 95 319 95 208 l 95 987 l 225 987 l 225 319 q 254 192 225 242 q 333 117 282 142 q 452 92 384 92 q 571 117 520 92 q 650 192 622 142 q 678 319 678 242 l 678 987 l 810 987 m 521 1253 l 673 1253 l 491 1054 l 389 1054 l 521 1253 z "},"Û":{"ha":901,"x_min":95,"x_max":810,"o":"m 810 987 l 810 319 q 761 134 810 208 q 629 23 711 60 q 452 -14 547 -14 q 270 23 351 -14 q 142 134 189 60 q 95 319 95 208 l 95 987 l 225 987 l 225 319 q 254 192 225 242 q 333 117 282 142 q 452 92 384 92 q 571 117 520 92 q 650 192 622 142 q 678 319 678 242 l 678 987 l 810 987 m 659 1067 l 659 1061 l 554 1061 l 452 1176 l 351 1061 l 248 1061 l 248 1068 l 414 1253 l 490 1253 l 659 1067 z "},"Ü":{"ha":901,"x_min":95,"x_max":810,"o":"m 810 987 l 810 319 q 761 134 810 208 q 629 23 711 60 q 452 -14 547 -14 q 270 23 351 -14 q 142 134 189 60 q 95 319 95 208 l 95 987 l 225 987 l 225 319 q 254 192 225 242 q 333 117 282 142 q 452 92 384 92 q 571 117 520 92 q 650 192 622 142 q 678 319 678 242 l 678 987 l 810 987 m 233 1141 q 252 1192 233 1171 q 308 1213 271 1213 q 363 1192 345 1213 q 382 1141 382 1171 q 363 1092 382 1112 q 308 1071 345 1071 q 252 1092 271 1071 q 233 1141 233 1112 m 526 1140 q 544 1191 526 1170 q 600 1212 563 1212 q 655 1191 636 1212 q 675 1140 675 1170 q 655 1090 675 1111 q 600 1069 636 1069 q 544 1090 563 1069 q 526 1140 526 1111 z "},"Ù":{"ha":901,"x_min":95,"x_max":810,"o":"m 810 987 l 810 319 q 761 134 810 208 q 629 23 711 60 q 452 -14 547 -14 q 270 23 351 -14 q 142 134 189 60 q 95 319 95 208 l 95 987 l 225 987 l 225 319 q 254 192 225 242 q 333 117 282 142 q 452 92 384 92 q 571 117 520 92 q 650 192 622 142 q 678 319 678 242 l 678 987 l 810 987 m 513 1054 l 404 1054 l 229 1253 l 382 1253 l 513 1054 z "},"Ý":{"ha":834,"x_min":10,"x_max":822,"o":"m 416 491 l 673 987 l 822 987 l 482 369 l 482 0 l 350 0 l 350 369 l 10 987 l 161 987 l 416 491 m 488 1252 l 640 1252 l 458 1053 l 356 1053 l 488 1252 z "},"á":{"ha":756,"x_min":74,"x_max":680,"o":"m 528 503 q 489 608 528 569 q 374 647 450 647 q 291 631 327 647 q 236 588 256 614 q 216 530 216 562 l 90 530 q 125 633 90 583 q 227 715 161 683 q 381 747 292 747 q 523 720 461 747 q 620 638 585 693 q 654 502 654 584 l 654 160 q 661 82 654 123 q 680 11 667 41 l 680 0 l 548 0 q 533 58 538 22 q 528 125 528 94 l 528 503 m 551 357 l 425 357 q 259 323 317 357 q 201 221 201 289 q 236 132 201 168 q 340 95 272 95 q 442 119 398 95 q 512 180 486 144 q 540 249 538 216 l 594 189 q 568 125 589 160 q 512 59 547 91 q 430 7 477 28 q 322 -14 382 -14 q 192 15 248 -14 q 105 94 136 44 q 74 203 74 143 q 163 384 74 322 q 404 445 253 445 l 549 445 l 551 357 m 463 1042 l 616 1042 l 433 843 l 332 843 l 463 1042 z "},"â":{"ha":756,"x_min":74,"x_max":680,"o":"m 528 503 q 489 608 528 569 q 374 647 450 647 q 291 631 327 647 q 236 588 256 614 q 216 530 216 562 l 90 530 q 125 633 90 583 q 227 715 161 683 q 381 747 292 747 q 523 720 461 747 q 620 638 585 693 q 654 502 654 584 l 654 160 q 661 82 654 123 q 680 11 667 41 l 680 0 l 548 0 q 533 58 538 22 q 528 125 528 94 l 528 503 m 551 357 l 425 357 q 259 323 317 357 q 201 221 201 289 q 236 132 201 168 q 340 95 272 95 q 442 119 398 95 q 512 180 486 144 q 540 249 538 216 l 594 189 q 568 125 589 160 q 512 59 547 91 q 430 7 477 28 q 322 -14 382 -14 q 192 15 248 -14 q 105 94 136 44 q 74 203 74 143 q 163 384 74 322 q 404 445 253 445 l 549 445 l 551 357 m 600 857 l 600 850 l 496 850 l 394 965 l 293 850 l 189 850 l 189 857 l 356 1042 l 432 1042 l 600 857 z "},"ä":{"ha":756,"x_min":74,"x_max":680,"o":"m 528 503 q 489 608 528 569 q 374 647 450 647 q 291 631 327 647 q 236 588 256 614 q 216 530 216 562 l 90 530 q 125 633 90 583 q 227 715 161 683 q 381 747 292 747 q 523 720 461 747 q 620 638 585 693 q 654 502 654 584 l 654 160 q 661 82 654 123 q 680 11 667 41 l 680 0 l 548 0 q 533 58 538 22 q 528 125 528 94 l 528 503 m 551 357 l 425 357 q 259 323 317 357 q 201 221 201 289 q 236 132 201 168 q 340 95 272 95 q 442 119 398 95 q 512 180 486 144 q 540 249 538 216 l 594 189 q 568 125 589 160 q 512 59 547 91 q 430 7 477 28 q 322 -14 382 -14 q 192 15 248 -14 q 105 94 136 44 q 74 203 74 143 q 163 384 74 322 q 404 445 253 445 l 549 445 l 551 357 m 176 930 q 195 981 176 960 q 250 1002 214 1002 q 306 981 287 1002 q 325 930 325 960 q 306 881 325 901 q 250 860 287 860 q 195 881 214 860 q 176 930 176 901 m 468 929 q 487 980 468 959 q 542 1001 505 1001 q 598 980 578 1001 q 617 929 617 959 q 598 879 617 900 q 542 859 578 859 q 487 879 505 859 q 468 929 468 900 z "},"à":{"ha":756,"x_min":74,"x_max":680,"o":"m 528 503 q 489 608 528 569 q 374 647 450 647 q 291 631 327 647 q 236 588 256 614 q 216 530 216 562 l 90 530 q 125 633 90 583 q 227 715 161 683 q 381 747 292 747 q 523 720 461 747 q 620 638 585 693 q 654 502 654 584 l 654 160 q 661 82 654 123 q 680 11 667 41 l 680 0 l 548 0 q 533 58 538 22 q 528 125 528 94 l 528 503 m 551 357 l 425 357 q 259 323 317 357 q 201 221 201 289 q 236 132 201 168 q 340 95 272 95 q 442 119 398 95 q 512 180 486 144 q 540 249 538 216 l 594 189 q 568 125 589 160 q 512 59 547 91 q 430 7 477 28 q 322 -14 382 -14 q 192 15 248 -14 q 105 94 136 44 q 74 203 74 143 q 163 384 74 322 q 404 445 253 445 l 549 445 l 551 357 m 455 843 l 347 843 l 171 1042 l 324 1042 l 455 843 z "},"å":{"ha":756,"x_min":74,"x_max":680,"o":"m 528 503 q 489 608 528 569 q 374 647 450 647 q 291 631 327 647 q 236 588 256 614 q 216 530 216 562 l 90 530 q 125 633 90 583 q 227 715 161 683 q 381 747 292 747 q 523 720 461 747 q 620 638 585 693 q 654 502 654 584 l 654 160 q 661 82 654 123 q 680 11 667 41 l 680 0 l 548 0 q 533 58 538 22 q 528 125 528 94 l 528 503 m 551 357 l 425 357 q 259 323 317 357 q 201 221 201 289 q 236 132 201 168 q 340 95 272 95 q 442 119 398 95 q 512 180 486 144 q 540 249 538 216 l 594 189 q 568 125 589 160 q 512 59 547 91 q 430 7 477 28 q 322 -14 382 -14 q 192 15 248 -14 q 105 94 136 44 q 74 203 74 143 q 163 384 74 322 q 404 445 253 445 l 549 445 l 551 357 m 248 962 q 290 1062 248 1021 q 395 1103 332 1103 q 498 1062 456 1103 q 541 962 541 1021 q 498 864 541 903 q 395 825 456 825 q 290 864 332 825 q 248 962 248 903 m 316 962 q 338 908 316 932 q 395 884 360 884 q 451 908 429 884 q 473 962 473 932 q 451 1019 473 994 q 395 1043 429 1043 q 338 1019 360 1043 q 316 962 316 994 z "},"ã":{"ha":756,"x_min":74,"x_max":680,"o":"m 528 503 q 489 608 528 569 q 374 647 450 647 q 291 631 327 647 q 236 588 256 614 q 216 530 216 562 l 90 530 q 125 633 90 583 q 227 715 161 683 q 381 747 292 747 q 523 720 461 747 q 620 638 585 693 q 654 502 654 584 l 654 160 q 661 82 654 123 q 680 11 667 41 l 680 0 l 548 0 q 533 58 538 22 q 528 125 528 94 l 528 503 m 551 357 l 425 357 q 259 323 317 357 q 201 221 201 289 q 236 132 201 168 q 340 95 272 95 q 442 119 398 95 q 512 180 486 144 q 540 249 538 216 l 594 189 q 568 125 589 160 q 512 59 547 91 q 430 7 477 28 q 322 -14 382 -14 q 192 15 248 -14 q 105 94 136 44 q 74 203 74 143 q 163 384 74 322 q 404 445 253 445 l 549 445 l 551 357 z "},"ç":{"ha":728,"x_min":62,"x_max":682,"o":"m 389 88 q 472 107 434 88 q 534 158 510 125 q 562 232 559 191 l 682 232 q 638 111 679 167 q 532 21 597 55 q 389 -14 467 -14 q 206 37 279 -14 q 98 171 134 87 q 62 353 62 254 l 62 381 q 98 563 62 480 q 207 697 134 646 q 389 747 279 747 q 540 712 475 747 q 642 617 605 677 q 682 481 679 557 l 562 481 q 537 564 559 527 q 477 624 515 602 q 389 646 439 646 q 269 606 313 646 q 207 506 225 567 q 189 381 189 446 l 189 353 q 207 227 189 288 q 268 127 224 166 q 389 88 312 88 m 410 -7 l 402 -43 q 474 -75 441 -50 q 506 -160 506 -101 q 453 -263 506 -224 q 300 -302 401 -302 l 295 -230 q 352 -223 326 -230 q 392 -201 377 -216 q 408 -163 408 -186 q 381 -116 408 -128 q 298 -98 355 -103 l 319 -7 l 410 -7 z "},"é":{"ha":737,"x_min":63,"x_max":686,"o":"m 400 -14 q 222 32 298 -14 q 105 158 146 78 q 63 341 63 238 l 63 370 q 109 574 63 490 q 228 703 155 659 q 384 747 302 747 q 556 700 490 747 q 655 572 623 653 q 686 389 686 491 l 686 332 l 138 332 l 138 434 l 559 434 l 559 444 q 540 539 557 492 q 486 615 523 585 q 384 646 448 646 q 283 613 327 646 q 215 520 239 581 q 190 370 190 458 l 190 341 q 216 214 190 271 q 290 122 241 157 q 407 88 339 88 q 519 115 473 88 q 600 188 566 142 l 677 128 q 575 30 642 74 q 400 -14 509 -14 m 452 1042 l 604 1042 l 422 843 l 320 843 l 452 1042 z "},"ê":{"ha":737,"x_min":63,"x_max":686,"o":"m 400 -14 q 222 32 298 -14 q 105 158 146 78 q 63 341 63 238 l 63 370 q 109 574 63 490 q 228 703 155 659 q 384 747 302 747 q 556 700 490 747 q 655 572 623 653 q 686 389 686 491 l 686 332 l 138 332 l 138 434 l 559 434 l 559 444 q 540 539 557 492 q 486 615 523 585 q 384 646 448 646 q 283 613 327 646 q 215 520 239 581 q 190 370 190 458 l 190 341 q 216 214 190 271 q 290 122 241 157 q 407 88 339 88 q 519 115 473 88 q 600 188 566 142 l 677 128 q 575 30 642 74 q 400 -14 509 -14 m 589 857 l 589 850 l 485 850 l 383 965 l 282 850 l 178 850 l 178 857 l 345 1042 l 421 1042 l 589 857 z "},"ë":{"ha":737,"x_min":63,"x_max":686,"o":"m 400 -14 q 222 32 298 -14 q 105 158 146 78 q 63 341 63 238 l 63 370 q 109 574 63 490 q 228 703 155 659 q 384 747 302 747 q 556 700 490 747 q 655 572 623 653 q 686 389 686 491 l 686 332 l 138 332 l 138 434 l 559 434 l 559 444 q 540 539 557 492 q 486 615 523 585 q 384 646 448 646 q 283 613 327 646 q 215 520 239 581 q 190 370 190 458 l 190 341 q 216 214 190 271 q 290 122 241 157 q 407 88 339 88 q 519 115 473 88 q 600 188 566 142 l 677 128 q 575 30 642 74 q 400 -14 509 -14 m 164 930 q 183 981 164 960 q 239 1002 202 1002 q 294 981 275 1002 q 313 930 313 960 q 294 881 313 901 q 239 860 275 860 q 183 881 202 860 q 164 930 164 901 m 456 929 q 475 980 456 959 q 530 1001 494 1001 q 586 980 567 1001 q 606 929 606 959 q 586 879 606 900 q 530 859 567 859 q 475 879 494 859 q 456 929 456 900 z "},"è":{"ha":737,"x_min":63,"x_max":686,"o":"m 400 -14 q 222 32 298 -14 q 105 158 146 78 q 63 341 63 238 l 63 370 q 109 574 63 490 q 228 703 155 659 q 384 747 302 747 q 556 700 490 747 q 655 572 623 653 q 686 389 686 491 l 686 332 l 138 332 l 138 434 l 559 434 l 559 444 q 540 539 557 492 q 486 615 523 585 q 384 646 448 646 q 283 613 327 646 q 215 520 239 581 q 190 370 190 458 l 190 341 q 216 214 190 271 q 290 122 241 157 q 407 88 339 88 q 519 115 473 88 q 600 188 566 142 l 677 128 q 575 30 642 74 q 400 -14 509 -14 m 444 843 l 336 843 l 160 1042 l 313 1042 l 444 843 z "},"í":{"ha":345,"x_min":106,"x_max":393,"o":"m 232 0 l 106 0 l 106 734 l 232 734 l 232 0 m 240 1040 l 393 1040 l 210 842 l 109 842 l 240 1040 z "},"î":{"ha":345,"x_min":-33,"x_max":378,"o":"m 232 0 l 106 0 l 106 734 l 232 734 l 232 0 m 378 855 l 378 848 l 273 848 l 172 964 l 71 848 l -33 848 l -33 856 l 134 1040 l 210 1040 l 378 855 z "},"ï":{"ha":345,"x_min":-47,"x_max":394,"o":"m 232 0 l 106 0 l 106 734 l 232 734 l 232 0 m -47 929 q -28 980 -47 959 q 27 1001 -9 1001 q 83 980 64 1001 q 102 929 102 959 q 83 879 102 900 q 27 859 64 859 q -28 879 -9 859 q -47 929 -47 900 m 245 928 q 263 979 245 958 q 319 1000 282 1000 q 375 979 355 1000 q 394 928 394 958 q 375 878 394 899 q 319 857 355 857 q 263 878 282 857 q 245 928 245 899 z "},"ì":{"ha":345,"x_min":-52,"x_max":232,"o":"m 232 0 l 106 0 l 106 734 l 232 734 l 232 0 m 232 842 l 123 842 l -52 1040 l 101 1040 l 232 842 z "},"ñ":{"ha":767,"x_min":95,"x_max":673,"o":"m 222 0 l 95 0 l 95 734 l 215 734 l 222 577 l 222 0 m 139 397 q 178 577 140 498 q 282 702 215 656 q 437 747 349 747 q 563 721 510 747 q 644 635 615 694 q 673 481 673 577 l 673 0 l 546 0 l 546 482 q 529 575 546 540 q 480 626 513 610 q 400 642 448 642 q 315 623 353 642 q 250 568 277 603 q 207 489 222 534 q 192 395 192 445 l 139 397 z "},"ó":{"ha":793,"x_min":62,"x_max":730,"o":"m 62 374 q 103 565 62 481 q 218 698 144 649 q 395 747 293 747 q 574 698 499 747 q 690 565 650 649 q 730 374 730 481 l 730 359 q 690 169 730 253 q 575 35 650 84 q 397 -14 500 -14 q 219 35 294 -14 q 103 169 144 84 q 62 359 62 253 l 62 374 m 189 359 q 212 224 189 286 q 281 125 235 163 q 397 88 327 88 q 512 125 466 88 q 581 224 557 163 q 604 359 604 286 l 604 374 q 581 509 604 447 q 511 608 557 570 q 395 646 465 646 q 281 608 327 646 q 212 509 235 570 q 189 374 189 447 l 189 359 m 458 1042 l 611 1042 l 429 843 l 327 843 l 458 1042 z "},"ô":{"ha":793,"x_min":62,"x_max":730,"o":"m 62 374 q 103 565 62 481 q 218 698 144 649 q 395 747 293 747 q 574 698 499 747 q 690 565 650 649 q 730 374 730 481 l 730 359 q 690 169 730 253 q 575 35 650 84 q 397 -14 500 -14 q 219 35 294 -14 q 103 169 144 84 q 62 359 62 253 l 62 374 m 189 359 q 212 224 189 286 q 281 125 235 163 q 397 88 327 88 q 512 125 466 88 q 581 224 557 163 q 604 359 604 286 l 604 374 q 581 509 604 447 q 511 608 557 570 q 395 646 465 646 q 281 608 327 646 q 212 509 235 570 q 189 374 189 447 l 189 359 m 596 857 l 596 850 l 492 850 l 390 965 l 289 850 l 185 850 l 185 857 l 352 1042 l 428 1042 l 596 857 z "},"ö":{"ha":793,"x_min":62,"x_max":730,"o":"m 62 374 q 103 565 62 481 q 218 698 144 649 q 395 747 293 747 q 574 698 499 747 q 690 565 650 649 q 730 374 730 481 l 730 359 q 690 169 730 253 q 575 35 650 84 q 397 -14 500 -14 q 219 35 294 -14 q 103 169 144 84 q 62 359 62 253 l 62 374 m 189 359 q 212 224 189 286 q 281 125 235 163 q 397 88 327 88 q 512 125 466 88 q 581 224 557 163 q 604 359 604 286 l 604 374 q 581 509 604 447 q 511 608 557 570 q 395 646 465 646 q 281 608 327 646 q 212 509 235 570 q 189 374 189 447 l 189 359 m 171 930 q 190 981 171 960 q 245 1002 209 1002 q 301 981 282 1002 q 320 930 320 960 q 301 881 320 901 q 245 860 282 860 q 190 881 209 860 q 171 930 171 901 m 463 929 q 482 980 463 959 q 537 1001 500 1001 q 593 980 574 1001 q 612 929 612 959 q 593 879 612 900 q 537 859 574 859 q 482 879 500 859 q 463 929 463 900 z "},"ò":{"ha":793,"x_min":62,"x_max":730,"o":"m 62 374 q 103 565 62 481 q 218 698 144 649 q 395 747 293 747 q 574 698 499 747 q 690 565 650 649 q 730 374 730 481 l 730 359 q 690 169 730 253 q 575 35 650 84 q 397 -14 500 -14 q 219 35 294 -14 q 103 169 144 84 q 62 359 62 253 l 62 374 m 189 359 q 212 224 189 286 q 281 125 235 163 q 397 88 327 88 q 512 125 466 88 q 581 224 557 163 q 604 359 604 286 l 604 374 q 581 509 604 447 q 511 608 557 570 q 395 646 465 646 q 281 608 327 646 q 212 509 235 570 q 189 374 189 447 l 189 359 m 451 843 l 342 843 l 167 1042 l 320 1042 l 451 843 z "},"ø":{"ha":787,"x_min":62,"x_max":730,"o":"m 218 -92 l 134 -92 l 583 820 l 667 820 l 218 -92 m 62 374 q 103 565 62 481 q 218 698 144 649 q 395 747 293 747 q 574 698 499 747 q 690 565 650 649 q 730 374 730 481 l 730 359 q 690 169 730 253 q 575 35 650 84 q 397 -14 500 -14 q 219 35 294 -14 q 103 169 144 84 q 62 359 62 253 l 62 374 m 189 359 q 212 224 189 286 q 281 125 235 163 q 397 88 327 88 q 512 125 466 88 q 581 224 557 163 q 604 359 604 286 l 604 374 q 581 509 604 447 q 511 608 557 570 q 395 646 465 646 q 281 608 327 646 q 212 509 235 570 q 189 374 189 447 l 189 359 z "},"õ":{"ha":793,"x_min":62,"x_max":730,"o":"m 62 374 q 103 565 62 481 q 218 698 144 649 q 395 747 293 747 q 574 698 499 747 q 690 565 650 649 q 730 374 730 481 l 730 359 q 690 169 730 253 q 575 35 650 84 q 397 -14 500 -14 q 219 35 294 -14 q 103 169 144 84 q 62 359 62 253 l 62 374 m 189 359 q 212 224 189 286 q 281 125 235 163 q 397 88 327 88 q 512 125 466 88 q 581 224 557 163 q 604 359 604 286 l 604 374 q 581 509 604 447 q 511 608 557 570 q 395 646 465 646 q 281 608 327 646 q 212 509 235 570 q 189 374 189 447 l 189 359 z "},"ú":{"ha":766,"x_min":92,"x_max":671,"o":"m 544 734 l 671 734 l 671 0 l 550 0 l 544 170 l 544 734 m 621 326 q 593 151 621 228 q 502 31 565 75 q 333 -14 439 -14 q 159 50 225 -14 q 92 260 92 114 l 92 734 l 219 734 l 219 259 q 238 156 219 193 q 289 106 258 120 q 353 92 319 92 q 480 123 433 92 q 547 207 527 154 q 568 324 568 260 l 621 326 m 453 1042 l 606 1042 l 423 843 l 321 843 l 453 1042 z "},"û":{"ha":766,"x_min":92,"x_max":671,"o":"m 544 734 l 671 734 l 671 0 l 550 0 l 544 170 l 544 734 m 621 326 q 593 151 621 228 q 502 31 565 75 q 333 -14 439 -14 q 159 50 225 -14 q 92 260 92 114 l 92 734 l 219 734 l 219 259 q 238 156 219 193 q 289 106 258 120 q 353 92 319 92 q 480 123 433 92 q 547 207 527 154 q 568 324 568 260 l 621 326 m 591 857 l 591 850 l 486 850 l 385 965 l 283 850 l 180 850 l 180 857 l 347 1042 l 422 1042 l 591 857 z "},"ü":{"ha":766,"x_min":92,"x_max":671,"o":"m 544 734 l 671 734 l 671 0 l 550 0 l 544 170 l 544 734 m 621 326 q 593 151 621 228 q 502 31 565 75 q 333 -14 439 -14 q 159 50 225 -14 q 92 260 92 114 l 92 734 l 219 734 l 219 259 q 238 156 219 193 q 289 106 258 120 q 353 92 319 92 q 480 123 433 92 q 547 207 527 154 q 568 324 568 260 l 621 326 m 166 930 q 185 981 166 960 q 241 1002 204 1002 q 296 981 277 1002 q 315 930 315 960 q 296 881 315 901 q 241 860 277 860 q 185 881 204 860 q 166 930 166 901 m 458 929 q 477 980 458 959 q 532 1001 496 1001 q 588 980 569 1001 q 608 929 608 959 q 588 879 608 900 q 532 859 569 859 q 477 879 496 859 q 458 929 458 900 z "},"ù":{"ha":766,"x_min":92,"x_max":671,"o":"m 544 734 l 671 734 l 671 0 l 550 0 l 544 170 l 544 734 m 621 326 q 593 151 621 228 q 502 31 565 75 q 333 -14 439 -14 q 159 50 225 -14 q 92 260 92 114 l 92 734 l 219 734 l 219 259 q 238 156 219 193 q 289 106 258 120 q 353 92 319 92 q 480 123 433 92 q 547 207 527 154 q 568 324 568 260 l 621 326 m 446 843 l 337 843 l 161 1042 l 315 1042 l 446 843 z "},"ý":{"ha":657,"x_min":15,"x_max":640,"o":"m 505 734 l 640 734 l 346 -113 q 319 -172 336 -140 q 277 -232 302 -203 q 215 -278 252 -260 q 128 -296 178 -296 q 104 -294 118 -296 q 77 -290 90 -292 q 57 -286 64 -288 l 57 -184 q 74 -186 62 -185 q 91 -188 86 -188 q 191 -161 155 -188 q 249 -67 227 -135 l 301 76 l 505 734 m 342 163 l 375 31 l 284 -14 l 15 734 l 153 734 l 342 163 m 413 1042 l 566 1042 l 383 843 l 281 843 l 413 1042 z "},"ÿ":{"ha":657,"x_min":15,"x_max":640,"o":"m 505 734 l 640 734 l 346 -113 q 319 -172 336 -140 q 277 -232 302 -203 q 215 -278 252 -260 q 128 -296 178 -296 q 104 -294 118 -296 q 77 -290 90 -292 q 57 -286 64 -288 l 57 -184 q 74 -186 62 -185 q 91 -188 86 -188 q 191 -161 155 -188 q 249 -67 227 -135 l 301 76 l 505 734 m 342 163 l 375 31 l 284 -14 l 15 734 l 153 734 l 342 163 m 125 930 q 144 981 125 960 q 200 1002 163 1002 q 256 981 237 1002 q 275 930 275 960 q 256 881 275 901 q 200 860 237 860 q 144 881 163 860 q 125 930 125 901 m 418 929 q 436 980 418 959 q 492 1001 455 1001 q 548 980 528 1001 q 567 929 567 959 q 548 879 567 900 q 492 859 528 859 q 436 879 455 859 q 418 929 418 900 z "},"`":{"ha":430,"x_min":38,"x_max":322,"o":"m 322 843 l 214 843 l 38 1042 l 191 1042 l 322 843 z "},"´":{"ha":437,"x_min":83,"x_max":368,"o":"m 215 1042 l 368 1042 l 185 843 l 83 843 l 215 1042 z "},"ˆ":{"ha":655,"x_min":115,"x_max":526,"o":"m 526 857 l 526 850 l 422 850 l 320 965 l 219 850 l 115 850 l 115 857 l 282 1042 l 358 1042 l 526 857 z "},"˜":{"ha":656,"x_min":84,"x_max":564,"o":"m 564 1017 q 545 931 564 968 q 492 874 525 895 q 418 854 459 854 q 361 864 383 854 q 321 886 338 873 q 284 908 303 899 q 236 918 264 918 q 188 896 208 918 q 169 842 169 874 l 84 847 q 103 934 84 897 q 156 992 123 971 q 230 1014 189 1014 q 281 1004 258 1014 q 323 981 303 994 q 363 959 342 968 q 412 949 385 949 q 460 971 440 949 q 479 1025 479 993 l 564 1017 z "},"¯":{"ha":637,"x_min":97,"x_max":553,"o":"m 553 884 l 97 884 l 97 980 l 553 980 l 553 884 z "},"¨":{"ha":581,"x_min":68,"x_max":509,"o":"m 68 930 q 87 981 68 960 q 142 1002 106 1002 q 198 981 179 1002 q 217 930 217 960 q 198 881 217 901 q 142 860 179 860 q 87 881 106 860 q 68 930 68 901 m 360 929 q 379 980 360 959 q 434 1001 397 1001 q 490 980 471 1001 q 509 929 509 959 q 490 879 509 900 q 434 859 471 859 q 379 879 397 859 q 360 929 360 900 z "},"˚":{"ha":466,"x_min":82,"x_max":374,"o":"m 82 955 q 124 1055 82 1014 q 229 1096 166 1096 q 332 1055 290 1096 q 374 955 374 1014 q 332 857 374 896 q 229 817 290 817 q 124 857 166 817 q 82 955 82 896 m 150 955 q 172 901 150 925 q 229 877 194 877 q 285 901 263 877 q 307 955 307 924 q 285 1011 307 987 q 229 1036 263 1036 q 172 1011 194 1036 q 150 955 150 987 z "},"¸":{"ha":345,"x_min":79,"x_max":290,"o":"m 194 0 l 186 -36 q 257 -68 225 -43 q 290 -153 290 -94 q 237 -256 290 -217 q 83 -295 184 -295 l 79 -223 q 135 -216 110 -223 q 176 -195 161 -210 q 191 -156 191 -180 q 165 -109 191 -121 q 82 -92 139 -96 l 103 0 l 194 0 z "},"«":{"ha":652,"x_min":68,"x_max":590,"o":"m 188 369 l 68 370 l 68 378 l 268 642 l 365 642 l 188 369 m 365 102 l 268 102 l 68 366 l 68 374 l 188 375 l 365 102 m 413 369 l 293 370 l 293 378 l 493 642 l 590 642 l 413 369 m 590 102 l 493 102 l 293 366 l 293 374 l 413 375 l 590 102 z "},"»":{"ha":652,"x_min":70,"x_max":604,"o":"m 246 376 l 366 376 l 366 367 l 166 104 l 70 104 l 246 376 m 166 644 l 366 380 l 366 371 l 246 370 l 70 644 l 166 644 m 484 376 l 604 376 l 604 367 l 404 104 l 307 104 l 484 376 m 404 644 l 604 380 l 604 371 l 484 370 l 307 644 l 404 644 z "},"ı":{"ha":345,"x_min":106,"x_max":232,"o":"m 232 0 l 106 0 l 106 734 l 232 734 l 232 0 z "},"€":{"ha":781,"x_min":65,"x_max":714,"o":"m 553 92 q 629 98 592 92 q 701 115 667 104 l 714 7 q 635 -8 677 -3 q 551 -14 593 -14 q 361 30 444 -14 q 232 161 279 74 q 185 379 185 249 l 185 606 q 232 825 185 738 q 360 957 278 913 q 551 1001 443 1001 q 633 995 593 1001 q 714 980 673 989 l 701 871 q 629 889 667 882 q 552 895 591 895 q 380 825 444 895 q 317 608 317 754 l 317 379 q 347 218 317 282 q 429 123 376 154 q 553 92 481 92 m 577 545 l 65 545 l 65 629 l 577 629 l 577 545 m 577 368 l 65 368 l 65 451 l 577 451 l 577 368 z "},"µ":{"ha":766,"x_min":83,"x_max":671,"o":"m 92 427 l 206 427 l 216 -282 l 83 -282 l 92 427 m 544 734 l 671 734 l 671 0 l 550 0 l 544 170 l 544 734 m 621 326 q 593 151 621 228 q 502 31 565 75 q 333 -14 439 -14 q 159 50 225 -14 q 92 260 92 114 l 92 734 l 219 734 l 219 259 q 238 156 219 193 q 289 106 258 120 q 353 92 319 92 q 480 123 433 92 q 547 207 527 154 q 568 324 568 260 l 621 326 z "},"ſ":{"ha":345,"x_min":109,"x_max":436,"o":"m 109 0 l 109 812 q 170 993 109 930 q 339 1056 232 1056 q 388 1052 363 1056 q 436 1042 412 1048 l 420 946 q 393 952 408 949 q 359 954 378 954 q 267 916 299 954 q 235 812 235 878 l 235 0 l 109 0 z "},"α":{"ha":785,"x_min":68,"x_max":776,"o":"m 68 354 q 101 558 68 470 q 198 697 134 647 q 355 747 262 747 q 503 705 444 747 q 595 583 562 662 q 638 395 628 504 l 638 337 q 595 151 629 229 q 503 29 562 72 q 353 -14 443 -14 q 199 31 262 -14 q 101 157 135 77 q 68 340 68 237 l 68 354 m 195 340 q 214 213 195 270 q 275 121 233 155 q 385 87 317 87 q 492 123 451 87 q 557 215 533 158 q 595 336 581 272 l 595 382 q 572 478 587 431 q 532 563 556 526 q 471 623 507 601 q 386 646 435 646 q 275 606 317 646 q 214 499 233 566 q 195 354 195 433 l 195 340 m 683 734 l 683 200 q 699 118 683 138 q 737 98 715 98 q 750 99 744 98 q 760 101 755 100 l 776 9 q 734 -10 755 -6 q 692 -14 713 -14 q 592 35 628 -14 q 556 200 556 84 l 556 574 l 576 734 l 683 734 z "},"װ":{"ha":819,"x_min":68,"x_max":696,"o":"m 570 0 l 570 698 l 477 698 l 477 799 l 696 799 l 696 0 l 570 0 m 161 0 l 161 698 l 68 698 l 68 799 l 287 799 l 287 0 l 161 0 z "},"ױ":{"ha":829,"x_min":68,"x_max":720,"o":"m 593 353 l 593 698 l 447 698 l 447 799 l 720 799 l 720 353 l 593 353 m 161 0 l 161 698 l 68 698 l 68 799 l 287 799 l 287 0 l 161 0 z "},"ײ":{"ha":839,"x_min":37,"x_max":729,"o":"m 603 353 l 603 698 l 456 698 l 456 799 l 729 799 l 729 353 l 603 353 m 184 353 l 184 698 l 37 698 l 37 799 l 310 799 l 310 353 l 184 353 z "},"ﭏ":{"ha":810,"x_min":56,"x_max":745,"o":"m 590 0 l 56 746 l 56 1018 l 182 1018 l 182 768 l 729 0 l 590 0 m 745 799 l 470 317 l 387 414 l 604 799 l 745 799 z "},"א":{"ha":891,"x_min":103,"x_max":826,"o":"m 682 0 l 103 799 l 244 799 l 823 0 l 682 0 m 132 0 l 132 290 q 173 470 132 401 q 302 570 214 538 l 351 505 q 254 335 254 461 l 254 0 l 132 0 m 826 799 l 551 317 l 467 414 l 684 799 l 826 799 z "},"ב":{"ha":732,"x_min":41,"x_max":698,"o":"m 41 0 l 41 102 l 475 102 l 601 106 l 698 96 l 698 0 l 41 0 m 475 28 l 475 501 q 429 651 475 605 q 278 698 382 698 l 85 698 l 85 799 l 285 799 q 521 723 441 799 q 601 498 601 648 l 601 28 l 475 28 z "},"ג":{"ha":537,"x_min":14,"x_max":482,"o":"m 45 -5 q 30 -5 38 -5 q 14 -3 21 -5 l 14 113 q 34 111 24 111 q 53 110 44 110 q 170 139 121 112 q 249 213 218 167 q 290 315 279 258 l 290 698 l 109 698 l 109 799 l 414 799 l 414 387 q 427 264 414 323 l 482 0 l 363 0 l 317 224 l 312 224 q 267 111 304 163 q 173 27 230 59 q 45 -5 115 -5 z "},"ד":{"ha":724,"x_min":41,"x_max":680,"o":"m 41 799 l 680 799 l 680 698 l 547 698 l 547 0 l 420 0 l 420 698 l 41 698 l 41 799 z "},"ה":{"ha":817,"x_min":100,"x_max":713,"o":"m 587 0 l 587 501 q 541 651 587 605 q 390 698 494 698 l 100 698 l 100 799 l 396 799 q 633 723 553 799 q 713 498 713 648 l 713 0 l 587 0 m 102 0 l 102 273 q 113 379 102 342 q 137 441 125 416 l 240 441 q 228 373 232 411 q 224 281 224 336 l 224 0 l 102 0 z "},"ו":{"ha":410,"x_min":68,"x_max":287,"o":"m 161 0 l 161 698 l 68 698 l 68 799 l 287 799 l 287 0 l 161 0 z "},"ז":{"ha":491,"x_min":52,"x_max":439,"o":"m 216 0 l 108 692 l 52 702 l 52 799 l 439 799 l 439 698 l 233 698 l 346 0 l 216 0 z "},"ח":{"ha":843,"x_min":123,"x_max":739,"o":"m 123 0 l 123 799 l 424 799 q 661 723 583 799 q 739 493 739 648 l 739 0 l 614 0 l 614 500 q 569 651 614 604 q 425 698 524 698 l 249 698 l 248 0 l 123 0 z "},"ט":{"ha":857,"x_min":123,"x_max":760,"o":"m 442 -15 q 275 25 347 -15 q 163 137 203 65 q 123 306 123 210 l 123 799 l 248 799 l 248 297 q 301 144 248 202 q 441 85 355 85 q 581 144 528 85 q 634 297 634 202 l 634 565 q 605 666 634 630 q 524 701 576 701 q 475 694 500 701 q 426 675 450 687 l 406 760 q 481 794 440 781 q 560 806 522 806 q 707 744 653 806 q 760 575 760 682 l 760 306 q 721 137 760 210 q 609 25 681 65 q 442 -15 538 -15 z "},"י":{"ha":419,"x_min":37,"x_max":310,"o":"m 184 353 l 184 698 l 37 698 l 37 799 l 310 799 l 310 353 l 184 353 z "},"ך":{"ha":688,"x_min":44,"x_max":566,"o":"m 441 -282 l 441 698 l 44 698 l 44 799 l 566 799 l 566 -282 l 441 -282 z "},"כ":{"ha":747,"x_min":55,"x_max":624,"o":"m 281 -12 q 173 -2 230 -12 q 55 24 117 7 l 75 119 q 272 90 187 88 q 441 146 383 92 q 498 303 498 201 l 498 698 l 83 698 l 83 799 l 624 799 l 624 330 q 582 138 624 214 q 463 25 540 62 q 281 -12 386 -12 z "},"ל":{"ha":713,"x_min":56,"x_max":663,"o":"m 56 698 l 56 1042 l 182 1042 l 182 799 l 616 799 l 616 698 l 56 698 m 663 720 l 370 0 l 235 0 l 567 799 l 663 799 l 663 720 z "},"ם":{"ha":882,"x_min":122,"x_max":760,"o":"m 122 0 l 122 799 l 760 799 l 760 0 l 122 0 m 248 102 l 634 102 l 634 698 l 248 698 l 248 102 z "},"מ":{"ha":881,"x_min":90,"x_max":778,"o":"m 116 0 l 177 508 q 209 613 184 564 q 267 688 233 662 q 274 693 270 691 q 280 698 277 696 l 279 700 q 203 683 249 695 q 119 658 157 671 l 90 753 q 203 785 142 771 q 328 806 264 798 q 446 814 391 814 q 692 728 607 814 q 778 476 777 642 l 778 0 l 449 0 l 449 101 l 652 101 l 652 490 q 604 653 652 597 q 465 708 555 708 q 355 657 399 708 q 300 520 311 607 l 240 0 l 116 0 z "},"ן":{"ha":399,"x_min":58,"x_max":277,"o":"m 153 -282 l 153 698 l 58 698 l 58 799 l 277 799 l 277 -282 l 153 -282 z "},"נ":{"ha":503,"x_min":41,"x_max":380,"o":"m 170 -14 q 104 -9 135 -14 q 41 1 73 -5 l 44 100 q 143 91 88 91 q 226 122 198 91 q 254 221 254 154 l 254 698 l 98 698 l 98 799 l 380 799 l 380 211 q 326 43 380 100 q 170 -14 271 -14 z "},"ס":{"ha":885,"x_min":70,"x_max":791,"o":"m 453 -15 q 277 31 353 -15 q 159 159 201 77 q 115 352 117 242 l 115 433 q 130 537 115 486 q 170 630 144 589 q 229 692 196 671 q 233 695 231 694 q 238 698 235 697 l 237 700 q 172 687 212 697 q 94 667 132 677 l 70 762 q 186 789 123 777 q 313 807 249 801 q 433 814 377 814 q 625 770 545 814 q 748 645 705 726 q 791 448 791 563 l 791 352 q 749 159 791 242 q 631 31 707 77 q 453 -15 555 -15 m 453 92 q 565 124 517 92 q 639 215 612 157 q 666 351 666 273 l 666 446 q 639 586 666 528 q 563 676 612 645 q 446 708 513 708 q 339 676 385 708 q 269 584 294 644 q 241 440 243 524 l 241 351 q 268 215 241 273 q 342 124 294 157 q 453 92 390 92 z "},"ע":{"ha":804,"x_min":41,"x_max":681,"o":"m 326 -17 q 192 -4 263 -17 q 41 39 120 9 l 72 133 q 199 94 140 106 q 310 80 259 81 q 488 140 420 80 q 555 315 555 201 l 555 799 l 681 799 l 681 320 q 636 135 681 210 q 511 22 591 60 q 326 -17 431 -17 m 85 799 l 211 799 l 340 210 q 365 123 351 159 q 402 58 378 88 l 303 60 q 252 126 275 90 q 217 216 229 163 l 85 799 z "},"ף":{"ha":824,"x_min":97,"x_max":701,"o":"m 701 799 l 701 -282 l 577 -282 l 577 698 l 303 698 q 278 637 289 673 q 260 563 267 602 q 254 486 254 524 l 254 394 q 295 385 270 387 q 361 382 321 382 l 361 273 q 265 277 304 273 q 195 292 226 281 q 132 319 164 302 l 130 452 q 137 544 129 498 q 159 629 144 589 q 194 698 174 669 l 97 698 l 97 799 l 701 799 z "},"פ":{"ha":871,"x_min":96,"x_max":748,"o":"m 395 -14 q 269 -2 338 -14 q 135 32 200 9 l 159 126 q 283 98 222 107 q 391 90 345 90 q 562 146 502 91 q 623 303 623 201 l 623 698 l 302 698 q 268 603 281 661 q 254 489 254 545 l 254 428 q 295 418 270 421 q 360 416 320 416 l 360 307 q 264 311 304 307 q 194 326 225 315 q 132 353 163 336 l 129 456 q 146 590 129 524 q 193 698 163 655 l 96 698 l 96 799 l 748 799 l 748 327 q 703 135 748 211 q 578 23 657 60 q 395 -14 498 -14 z "},"ץ":{"ha":743,"x_min":40,"x_max":713,"o":"m 404 -282 l 404 213 q 378 304 404 267 l 40 799 l 182 799 l 418 437 l 484 343 q 513 280 504 314 q 522 201 522 245 l 522 -282 l 404 -282 m 448 332 l 370 433 l 572 799 l 713 799 l 448 332 z "},"צ":{"ha":759,"x_min":40,"x_max":713,"o":"m 88 0 l 88 102 l 517 102 l 40 799 l 182 799 l 425 432 l 680 64 l 680 0 l 88 0 m 448 332 l 370 433 l 572 799 l 713 799 l 448 332 z "},"ק":{"ha":863,"x_min":121,"x_max":741,"o":"m 391 0 l 391 99 q 553 162 492 102 q 614 327 614 222 l 614 698 l 121 698 l 121 799 l 741 799 l 741 330 q 697 155 741 229 q 575 42 654 82 q 391 0 496 3 m 137 -282 l 137 300 q 149 405 137 368 q 172 467 160 441 l 275 467 q 263 399 267 437 q 259 307 259 362 l 259 -282 l 137 -282 z "},"ר":{"ha":682,"x_min":41,"x_max":578,"o":"m 452 0 l 452 557 q 414 660 452 623 q 309 698 376 698 l 41 698 l 41 799 l 313 799 q 508 733 437 799 q 578 548 578 667 l 578 0 l 452 0 z "},"ש":{"ha":1103,"x_min":123,"x_max":980,"o":"m 245 799 l 245 142 q 381 99 309 115 q 519 83 453 83 q 691 110 614 83 q 813 194 768 138 q 858 338 858 251 l 858 799 l 980 799 l 980 326 q 944 174 980 239 q 845 66 908 109 q 700 2 782 23 q 525 -19 618 -19 q 323 4 427 -19 q 123 73 218 28 l 123 799 l 245 799 m 437 220 q 475 294 463 248 q 488 401 488 340 l 488 799 l 610 799 l 610 424 q 594 304 610 355 q 541 216 577 252 l 437 220 z "},"ת":{"ha":867,"x_min":6,"x_max":764,"o":"m 449 799 q 686 723 608 799 q 764 493 764 648 l 764 0 l 639 0 l 638 500 q 594 651 638 604 q 450 698 549 698 l 337 698 q 301 604 315 661 q 288 486 288 547 l 288 217 q 236 50 288 106 q 84 -7 183 -7 q 45 -5 64 -7 q 6 -1 26 -3 l 6 100 q 30 98 18 99 q 53 98 42 98 q 139 128 113 98 q 165 224 165 159 l 165 477 q 181 599 165 537 q 227 698 197 661 l 77 698 l 77 799 l 449 799 z "},"ײַ":{"ha":839,"x_min":37,"x_max":729,"o":"m 603 353 l 603 698 l 456 698 l 456 799 l 729 799 l 729 353 l 603 353 m 184 353 l 184 698 l 37 698 l 37 799 l 310 799 l 310 353 l 184 353 m 113 -196 l 113 -132 l 387 -132 l 387 -196 l 113 -196 z "},"ﬠ":{"ha":826,"x_min":41,"x_max":703,"o":"m 326 -26 q 41 33 199 -26 l 72 127 q 199 87 140 100 q 310 74 259 75 q 485 134 420 74 q 555 309 550 194 l 578 799 l 703 799 l 680 314 q 577 61 671 149 q 326 -26 484 -26 m 95 799 l 221 799 l 350 210 q 375 124 361 159 q 412 58 389 89 l 313 60 q 262 125 286 88 q 227 216 239 163 l 95 799 z "},"ﬡ":{"ha":1229,"x_min":103,"x_max":1164,"o":"m 968 0 l 103 799 l 271 799 l 1142 0 l 968 0 m 151 0 l 151 392 q 192 568 151 496 q 312 680 233 640 l 351 633 q 294 532 314 589 q 273 388 273 475 l 273 0 l 151 0 m 835 217 l 751 313 l 1023 799 l 1164 799 l 835 217 z "},"ﬢ":{"ha":913,"x_min":41,"x_max":870,"o":"m 41 799 l 870 799 l 870 705 l 709 690 l 709 0 l 583 0 l 583 698 l 41 698 l 41 799 z "},"ﬣ":{"ha":1106,"x_min":100,"x_max":1003,"o":"m 100 0 l 100 269 q 105 339 100 309 q 116 392 109 370 q 127 428 122 414 l 239 444 l 245 438 q 235 391 240 418 q 228 332 231 364 q 224 264 224 300 l 224 0 l 100 0 m 877 0 l 877 557 q 839 660 877 623 q 735 698 801 698 l 101 698 l 101 799 l 738 799 q 933 733 863 799 q 1003 548 1003 667 l 1003 0 l 877 0 z "},"ﬤ":{"ha":1060,"x_min":55,"x_max":937,"o":"m 465 -23 q 273 -11 378 -23 q 55 25 168 1 l 74 126 q 284 93 185 104 q 460 82 384 82 q 725 141 640 82 q 812 315 811 200 l 812 698 l 78 698 l 78 799 l 937 799 l 937 314 q 882 126 937 201 q 721 14 826 52 q 465 -23 615 -23 z "},"ﬥ":{"ha":961,"x_min":56,"x_max":911,"o":"m 775 698 l 56 698 l 56 1018 l 182 1018 l 182 799 l 893 799 l 775 698 m 911 720 l 493 0 l 358 0 l 814 799 l 911 799 l 911 720 z "},"ﬦ":{"ha":1196,"x_min":77,"x_max":1095,"o":"m 77 0 l 77 799 l 1095 799 l 1095 0 l 77 0 m 203 102 l 969 102 l 969 698 l 203 698 l 203 102 z "},"ﬧ":{"ha":973,"x_min":41,"x_max":869,"o":"m 744 0 l 744 557 q 706 660 744 623 q 602 698 668 698 l 41 698 l 41 799 l 604 799 q 800 733 730 799 q 869 548 869 667 l 869 0 l 744 0 z "},"ﬨ":{"ha":1190,"x_min":6,"x_max":1087,"o":"m 772 799 q 1009 723 930 799 q 1087 493 1087 648 l 1087 0 l 962 0 l 961 500 q 917 651 961 604 q 773 698 872 698 l 337 698 q 301 604 315 661 q 288 486 288 547 l 288 217 q 236 50 288 106 q 84 -7 183 -7 q 45 -5 64 -7 q 6 -1 26 -3 l 6 100 q 30 98 18 99 q 53 98 42 98 q 139 128 113 98 q 165 224 165 159 l 165 477 q 181 599 165 537 q 227 698 197 661 l 77 698 l 77 799 l 772 799 z "},"שׁ":{"ha":1103,"x_min":123,"x_max":980,"o":"m 245 799 l 245 142 q 381 99 309 115 q 519 83 453 83 q 691 110 614 83 q 813 194 768 138 q 858 338 858 251 l 858 799 l 980 799 l 980 326 q 944 174 980 239 q 845 66 908 109 q 700 2 782 23 q 525 -19 618 -19 q 323 4 427 -19 q 123 73 218 28 l 123 799 l 245 799 m 437 220 q 475 294 463 248 q 488 401 488 340 l 488 799 l 610 799 l 610 424 q 594 304 610 355 q 541 216 577 252 l 437 220 m 915 903 q 877 918 892 903 q 861 951 861 932 q 877 987 861 973 q 915 1001 892 1001 q 952 987 937 1001 q 968 951 968 973 q 952 917 968 930 q 915 903 937 903 z "},"שׂ":{"ha":1103,"x_min":123,"x_max":980,"o":"m 245 799 l 245 142 q 381 99 309 115 q 519 83 453 83 q 691 110 614 83 q 813 194 768 138 q 858 338 858 251 l 858 799 l 980 799 l 980 326 q 944 174 980 239 q 845 66 908 109 q 700 2 782 23 q 525 -19 618 -19 q 323 4 427 -19 q 123 73 218 28 l 123 799 l 245 799 m 437 220 q 475 294 463 248 q 488 401 488 340 l 488 799 l 610 799 l 610 424 q 594 304 610 355 q 541 216 577 252 l 437 220 m 179 903 q 141 918 157 903 q 126 951 126 932 q 141 987 126 973 q 179 1001 157 1001 q 217 987 202 1001 q 233 951 233 973 q 217 917 233 930 q 179 903 202 903 z "},"שּׁ":{"ha":1103,"x_min":123,"x_max":980,"o":"m 245 799 l 245 142 q 381 99 309 115 q 519 83 453 83 q 691 110 614 83 q 813 194 768 138 q 858 338 858 251 l 858 799 l 980 799 l 980 326 q 944 174 980 239 q 845 66 908 109 q 700 2 782 23 q 525 -19 618 -19 q 323 4 427 -19 q 123 73 218 28 l 123 799 l 245 799 m 437 220 q 475 294 463 248 q 488 401 488 340 l 488 799 l 610 799 l 610 424 q 594 304 610 355 q 541 216 577 252 l 437 220 m 734 359 q 696 374 711 359 q 681 409 681 389 q 696 444 681 430 q 734 458 711 458 q 772 444 757 458 q 787 409 787 430 q 772 373 787 388 q 734 359 757 359 m 915 903 q 877 918 892 903 q 861 951 861 932 q 877 987 861 973 q 915 1001 892 1001 q 952 987 937 1001 q 968 951 968 973 q 952 917 968 930 q 915 903 937 903 z "},"שּׂ":{"ha":1103,"x_min":123,"x_max":980,"o":"m 245 799 l 245 142 q 381 99 309 115 q 519 83 453 83 q 691 110 614 83 q 813 194 768 138 q 858 338 858 251 l 858 799 l 980 799 l 980 326 q 944 174 980 239 q 845 66 908 109 q 700 2 782 23 q 525 -19 618 -19 q 323 4 427 -19 q 123 73 218 28 l 123 799 l 245 799 m 437 220 q 475 294 463 248 q 488 401 488 340 l 488 799 l 610 799 l 610 424 q 594 304 610 355 q 541 216 577 252 l 437 220 m 734 359 q 696 374 711 359 q 681 409 681 389 q 696 444 681 430 q 734 458 711 458 q 772 444 757 458 q 787 409 787 430 q 772 373 787 388 q 734 359 757 359 m 179 903 q 141 918 157 903 q 126 951 126 932 q 141 987 126 973 q 179 1001 157 1001 q 217 987 202 1001 q 233 951 233 973 q 217 917 233 930 q 179 903 202 903 z "},"אַ":{"ha":891,"x_min":103,"x_max":826,"o":"m 682 0 l 103 799 l 244 799 l 823 0 l 682 0 m 132 0 l 132 290 q 173 470 132 401 q 302 570 214 538 l 351 505 q 254 335 254 461 l 254 0 l 132 0 m 826 799 l 551 317 l 467 414 l 684 799 l 826 799 m 323 -196 l 323 -132 l 597 -132 l 597 -196 l 323 -196 z "},"אָ":{"ha":891,"x_min":103,"x_max":826,"o":"m 682 0 l 103 799 l 244 799 l 823 0 l 682 0 m 132 0 l 132 290 q 173 470 132 401 q 302 570 214 538 l 351 505 q 254 335 254 461 l 254 0 l 132 0 m 826 799 l 551 317 l 467 414 l 684 799 l 826 799 m 463 -363 q 424 -348 439 -363 q 409 -313 409 -332 q 416 -285 409 -296 q 431 -255 423 -274 q 441 -196 439 -236 l 333 -196 l 333 -132 l 589 -132 l 589 -196 l 484 -196 q 494 -255 486 -236 q 509 -285 502 -274 q 515 -313 515 -296 q 500 -349 515 -334 q 463 -363 485 -363 z "},"אּ":{"ha":891,"x_min":103,"x_max":826,"o":"m 682 0 l 103 799 l 244 799 l 823 0 l 682 0 m 132 0 l 132 290 q 173 470 132 401 q 302 570 214 538 l 351 505 q 254 335 254 461 l 254 0 l 132 0 m 826 799 l 551 317 l 467 414 l 684 799 l 826 799 m 395 100 q 358 116 373 100 q 342 151 342 131 q 358 186 342 172 q 395 200 373 200 q 434 186 418 200 q 449 151 449 172 q 434 115 449 130 q 395 100 418 100 z "},"בּ":{"ha":732,"x_min":41,"x_max":698,"o":"m 41 0 l 41 102 l 475 102 l 601 106 l 698 96 l 698 0 l 41 0 m 475 28 l 475 501 q 429 651 475 605 q 278 698 382 698 l 85 698 l 85 799 l 285 799 q 521 723 441 799 q 601 498 601 648 l 601 28 l 475 28 m 258 359 q 221 374 236 359 q 205 409 205 389 q 221 444 205 430 q 258 458 236 458 q 297 444 281 458 q 312 409 312 430 q 297 373 312 388 q 258 359 281 359 z "},"גּ":{"ha":537,"x_min":14,"x_max":482,"o":"m 45 -5 q 30 -5 38 -5 q 14 -3 21 -5 l 14 113 q 34 111 24 111 q 53 110 44 110 q 170 139 121 112 q 249 213 218 167 q 290 315 279 258 l 290 698 l 109 698 l 109 799 l 414 799 l 414 387 q 427 264 414 323 l 482 0 l 363 0 l 317 224 l 312 224 q 267 111 304 163 q 173 27 230 59 q 45 -5 115 -5 m 136 359 q 99 374 114 359 q 83 409 83 389 q 99 444 83 430 q 136 458 114 458 q 175 444 159 458 q 190 409 190 430 q 175 373 190 388 q 136 359 159 359 z "},"דּ":{"ha":724,"x_min":41,"x_max":680,"o":"m 41 799 l 680 799 l 680 698 l 547 698 l 547 0 l 420 0 l 420 698 l 41 698 l 41 799 m 218 359 q 181 374 196 359 q 165 409 165 389 q 181 444 165 430 q 218 458 196 458 q 257 444 241 458 q 272 409 272 430 q 257 373 272 388 q 218 359 241 359 z "},"הּ":{"ha":817,"x_min":100,"x_max":713,"o":"m 587 0 l 587 501 q 541 651 587 605 q 390 698 494 698 l 100 698 l 100 799 l 396 799 q 633 723 553 799 q 713 498 713 648 l 713 0 l 587 0 m 102 0 l 102 273 q 113 379 102 342 q 137 441 125 416 l 240 441 q 228 373 232 411 q 224 281 224 336 l 224 0 l 102 0 m 406 359 q 369 374 384 359 q 353 409 353 389 q 369 444 353 430 q 406 458 384 458 q 445 444 429 458 q 460 409 460 430 q 445 373 460 388 q 406 359 429 359 z "},"וּ":{"ha":410,"x_min":-5,"x_max":287,"o":"m 161 0 l 161 698 l 68 698 l 68 799 l 287 799 l 287 0 l 161 0 m 48 359 q 11 374 26 359 q -5 409 -5 389 q 11 444 -5 430 q 48 458 26 458 q 86 444 71 458 q 102 409 102 430 q 86 373 102 388 q 48 359 71 359 z "},"זּ":{"ha":491,"x_min":52,"x_max":439,"o":"m 216 0 l 108 692 l 52 702 l 52 799 l 439 799 l 439 698 l 233 698 l 346 0 l 216 0 m 383 359 q 346 374 361 359 q 330 409 330 389 q 346 444 330 430 q 383 458 361 458 q 421 444 406 458 q 437 409 437 430 q 421 373 437 388 q 383 359 406 359 z "},"טּ":{"ha":857,"x_min":123,"x_max":760,"o":"m 442 -15 q 275 25 347 -15 q 163 137 203 65 q 123 306 123 210 l 123 799 l 248 799 l 248 297 q 301 144 248 202 q 441 85 355 85 q 581 144 528 85 q 634 297 634 202 l 634 565 q 605 666 634 630 q 524 701 576 701 q 475 694 500 701 q 426 675 450 687 l 406 760 q 481 794 440 781 q 560 806 522 806 q 707 744 653 806 q 760 575 760 682 l 760 306 q 721 137 760 210 q 609 25 681 65 q 442 -15 538 -15 m 442 359 q 405 374 420 359 q 389 409 389 389 q 405 444 389 430 q 442 458 420 458 q 480 444 465 458 q 496 409 496 430 q 480 373 496 388 q 442 359 465 359 z "},"יּ":{"ha":419,"x_min":9,"x_max":310,"o":"m 184 353 l 184 698 l 37 698 l 37 799 l 310 799 l 310 353 l 184 353 m 62 486 q 24 502 39 486 q 9 536 9 517 q 24 572 9 557 q 62 586 39 586 q 100 572 85 586 q 115 536 115 557 q 100 501 115 515 q 62 486 85 486 z "},"ךּ":{"ha":688,"x_min":44,"x_max":566,"o":"m 441 -282 l 441 698 l 44 698 l 44 799 l 566 799 l 566 -282 l 441 -282 m 223 359 q 185 374 201 359 q 170 409 170 389 q 185 444 170 430 q 223 458 201 458 q 261 444 246 458 q 277 409 277 430 q 261 373 277 388 q 223 359 246 359 z "},"כּ":{"ha":747,"x_min":55,"x_max":624,"o":"m 281 -12 q 173 -2 230 -12 q 55 24 117 7 l 75 119 q 272 90 187 88 q 441 146 383 92 q 498 303 498 201 l 498 698 l 83 698 l 83 799 l 624 799 l 624 330 q 582 138 624 214 q 463 25 540 62 q 281 -12 386 -12 m 277 359 q 240 374 255 359 q 224 409 224 389 q 240 444 224 430 q 277 458 255 458 q 316 444 300 458 q 331 409 331 430 q 316 373 331 388 q 277 359 300 359 z "},"לּ":{"ha":713,"x_min":56,"x_max":663,"o":"m 56 698 l 56 1042 l 182 1042 l 182 799 l 616 799 l 616 698 l 56 698 m 663 720 l 370 0 l 235 0 l 567 799 l 663 799 l 663 720 m 210 410 q 173 426 188 410 q 157 460 157 441 q 173 496 157 481 q 210 510 188 510 q 249 496 233 510 q 264 460 264 481 q 249 425 264 439 q 210 410 233 410 z "},"מּ":{"ha":881,"x_min":90,"x_max":778,"o":"m 116 0 l 177 508 q 209 613 184 564 q 267 688 233 662 q 274 693 270 691 q 280 698 277 696 l 279 700 q 203 683 249 695 q 119 658 157 671 l 90 753 q 203 785 142 771 q 328 806 264 798 q 446 814 391 814 q 692 728 607 814 q 778 476 777 642 l 778 0 l 449 0 l 449 101 l 652 101 l 652 490 q 604 653 652 597 q 465 708 555 708 q 355 657 399 708 q 300 520 311 607 l 240 0 l 116 0 m 467 359 q 429 374 444 359 q 414 409 414 389 q 429 444 414 430 q 467 458 444 458 q 505 444 490 458 q 520 409 520 430 q 505 373 520 388 q 467 359 490 359 z "},"נּ":{"ha":503,"x_min":41,"x_max":380,"o":"m 170 -14 q 104 -9 135 -14 q 41 1 73 -5 l 44 100 q 143 91 88 91 q 226 122 198 91 q 254 221 254 154 l 254 698 l 98 698 l 98 799 l 380 799 l 380 211 q 326 43 380 100 q 170 -14 271 -14 m 116 359 q 78 374 94 359 q 63 409 63 389 q 78 444 63 430 q 116 458 94 458 q 154 444 139 458 q 170 409 170 430 q 154 373 170 388 q 116 359 139 359 z "},"סּ":{"ha":885,"x_min":70,"x_max":791,"o":"m 453 -15 q 277 31 353 -15 q 159 159 201 77 q 115 352 117 242 l 115 433 q 130 537 115 486 q 170 630 144 589 q 229 692 196 671 q 233 695 231 694 q 238 698 235 697 l 237 700 q 172 687 212 697 q 94 667 132 677 l 70 762 q 186 789 123 777 q 313 807 249 801 q 433 814 377 814 q 625 770 545 814 q 748 645 705 726 q 791 448 791 563 l 791 352 q 749 159 791 242 q 631 31 707 77 q 453 -15 555 -15 m 453 92 q 565 124 517 92 q 639 215 612 157 q 666 351 666 273 l 666 446 q 639 586 666 528 q 563 676 612 645 q 446 708 513 708 q 339 676 385 708 q 269 584 294 644 q 241 440 243 524 l 241 351 q 268 215 241 273 q 342 124 294 157 q 453 92 390 92 m 454 359 q 416 374 431 359 q 401 409 401 389 q 416 444 401 430 q 454 458 431 458 q 492 444 477 458 q 507 409 507 430 q 492 373 507 388 q 454 359 477 359 z "},"ףּ":{"ha":824,"x_min":97,"x_max":701,"o":"m 701 799 l 701 -282 l 577 -282 l 577 698 l 303 698 q 278 637 289 673 q 260 563 267 602 q 254 486 254 524 l 254 394 q 295 385 270 387 q 361 382 321 382 l 361 273 q 265 277 304 273 q 195 292 226 281 q 132 319 164 302 l 130 452 q 137 544 129 498 q 159 629 144 589 q 194 698 174 669 l 97 698 l 97 799 l 701 799 m 418 479 q 380 495 395 479 q 365 530 365 510 q 380 565 365 551 q 418 579 395 579 q 456 565 441 579 q 471 530 471 551 q 456 494 471 509 q 418 479 441 479 z "},"פּ":{"ha":871,"x_min":96,"x_max":748,"o":"m 395 -14 q 269 -2 338 -14 q 135 32 200 9 l 159 126 q 283 98 222 107 q 391 90 345 90 q 562 146 502 91 q 623 303 623 201 l 623 698 l 302 698 q 268 603 281 661 q 254 489 254 545 l 254 428 q 295 418 270 421 q 360 416 320 416 l 360 307 q 264 311 304 307 q 194 326 225 315 q 132 353 163 336 l 129 456 q 146 590 129 524 q 193 698 163 655 l 96 698 l 96 799 l 748 799 l 748 327 q 703 135 748 211 q 578 23 657 60 q 395 -14 498 -14 m 441 488 q 403 503 418 488 q 388 538 388 518 q 403 573 388 559 q 441 587 418 587 q 479 573 464 587 q 494 538 494 559 q 479 502 494 517 q 441 488 464 488 z "},"צּ":{"ha":759,"x_min":40,"x_max":713,"o":"m 88 0 l 88 102 l 517 102 l 40 799 l 182 799 l 425 432 l 680 64 l 680 0 l 88 0 m 448 332 l 370 433 l 572 799 l 713 799 l 448 332 m 218 195 q 181 210 196 195 q 165 245 165 225 q 181 280 165 266 q 218 294 196 294 q 257 280 241 294 q 272 245 272 266 q 257 209 272 224 q 218 195 241 195 z "},"קּ":{"ha":863,"x_min":121,"x_max":741,"o":"m 391 0 l 391 99 q 553 162 492 102 q 614 327 614 222 l 614 698 l 121 698 l 121 799 l 741 799 l 741 330 q 697 155 741 229 q 575 42 654 82 q 391 0 496 3 m 137 -282 l 137 300 q 149 405 137 368 q 172 467 160 441 l 275 467 q 263 399 267 437 q 259 307 259 362 l 259 -282 l 137 -282 m 433 359 q 395 374 410 359 q 380 409 380 389 q 395 444 380 430 q 433 458 410 458 q 471 444 456 458 q 486 409 486 430 q 471 373 486 388 q 433 359 456 359 z "},"רּ":{"ha":682,"x_min":41,"x_max":578,"o":"m 452 0 l 452 557 q 414 660 452 623 q 309 698 376 698 l 41 698 l 41 799 l 313 799 q 508 733 437 799 q 578 548 578 667 l 578 0 l 452 0 m 231 359 q 194 374 209 359 q 178 409 178 389 q 194 444 178 430 q 231 458 209 458 q 270 444 254 458 q 285 409 285 430 q 270 373 285 388 q 231 359 254 359 z "},"שּ":{"ha":1103,"x_min":123,"x_max":980,"o":"m 245 799 l 245 142 q 381 99 309 115 q 519 83 453 83 q 691 110 614 83 q 813 194 768 138 q 858 338 858 251 l 858 799 l 980 799 l 980 326 q 944 174 980 239 q 845 66 908 109 q 700 2 782 23 q 525 -19 618 -19 q 323 4 427 -19 q 123 73 218 28 l 123 799 l 245 799 m 437 220 q 475 294 463 248 q 488 401 488 340 l 488 799 l 610 799 l 610 424 q 594 304 610 355 q 541 216 577 252 l 437 220 m 734 359 q 696 374 711 359 q 681 409 681 389 q 696 444 681 430 q 734 458 711 458 q 772 444 757 458 q 787 409 787 430 q 772 373 787 388 q 734 359 757 359 z "},"תּ":{"ha":867,"x_min":6,"x_max":764,"o":"m 449 799 q 686 723 608 799 q 764 493 764 648 l 764 0 l 639 0 l 638 500 q 594 651 638 604 q 450 698 549 698 l 337 698 q 301 604 315 661 q 288 486 288 547 l 288 217 q 236 50 288 106 q 84 -7 183 -7 q 45 -5 64 -7 q 6 -1 26 -3 l 6 100 q 30 98 18 99 q 53 98 42 98 q 139 128 113 98 q 165 224 165 159 l 165 477 q 181 599 165 537 q 227 698 197 661 l 77 698 l 77 799 l 449 799 m 463 359 q 426 374 441 359 q 410 409 410 389 q 426 444 410 430 q 463 458 441 458 q 502 444 486 458 q 517 409 517 430 q 502 373 517 388 q 463 359 486 359 z "},"וֹ":{"ha":410,"x_min":68,"x_max":287,"o":"m 161 0 l 161 698 l 68 698 l 68 799 l 287 799 l 287 0 l 161 0 m 178 903 q 140 918 155 903 q 125 951 125 932 q 140 987 125 973 q 178 1001 155 1001 q 217 987 201 1001 q 232 951 232 973 q 217 917 232 930 q 178 903 201 903 z "},"בֿ":{"ha":732,"x_min":41,"x_max":698,"o":"m 41 0 l 41 102 l 475 102 l 601 106 l 698 96 l 698 0 l 41 0 m 475 28 l 475 501 q 429 651 475 605 q 278 698 382 698 l 85 698 l 85 799 l 285 799 q 521 723 441 799 q 601 498 601 648 l 601 28 l 475 28 m 162 920 l 162 993 l 492 993 l 492 920 l 162 920 z "},"כֿ":{"ha":747,"x_min":55,"x_max":624,"o":"m 281 -12 q 173 -2 230 -12 q 55 24 117 7 l 75 119 q 272 90 187 88 q 441 146 383 92 q 498 303 498 201 l 498 698 l 83 698 l 83 799 l 624 799 l 624 330 q 582 138 624 214 q 463 25 540 62 q 281 -12 386 -12 m 159 920 l 159 993 l 489 993 l 489 920 l 159 920 z "},"פֿ":{"ha":871,"x_min":96,"x_max":748,"o":"m 395 -14 q 269 -2 338 -14 q 135 32 200 9 l 159 126 q 283 98 222 107 q 391 90 345 90 q 562 146 502 91 q 623 303 623 201 l 623 698 l 302 698 q 268 603 281 661 q 254 489 254 545 l 254 428 q 295 418 270 421 q 360 416 320 416 l 360 307 q 264 311 304 307 q 194 326 225 315 q 132 353 163 336 l 129 456 q 146 590 129 524 q 193 698 163 655 l 96 698 l 96 799 l 748 799 l 748 327 q 703 135 748 211 q 578 23 657 60 q 395 -14 498 -14 m 273 920 l 273 993 l 603 993 l 603 920 l 273 920 z "},"₀":{"ha":510,"x_min":54,"x_max":454,"o":"m 454 -29 q 400 -201 454 -146 q 256 -257 345 -257 q 110 -201 165 -257 q 54 -29 54 -146 l 54 65 q 109 237 54 181 q 254 293 164 293 q 399 237 345 293 q 454 65 454 181 l 454 -29 m 347 75 q 323 174 347 142 q 254 206 299 206 q 186 174 210 206 q 162 75 162 142 l 162 -38 q 186 -139 162 -106 q 256 -171 211 -171 q 323 -139 300 -171 q 347 -38 347 -106 l 347 75 z "},"₁":{"ha":510,"x_min":83,"x_max":336,"o":"m 336 -249 l 229 -249 l 229 160 l 83 121 l 83 208 l 324 286 l 336 286 l 336 -249 z "},"₂":{"ha":510,"x_min":45,"x_max":464,"o":"m 464 -249 l 57 -249 l 57 -176 l 253 8 q 316 80 298 50 q 334 132 334 110 q 313 186 334 165 q 251 208 291 208 q 176 181 200 208 q 153 117 153 155 l 45 117 q 69 205 45 165 q 139 270 94 245 q 248 294 184 294 q 391 251 339 294 q 442 134 442 208 q 426 66 442 98 q 381 4 410 35 q 313 -63 353 -27 l 194 -163 l 464 -163 l 464 -249 z "},"₃":{"ha":510,"x_min":43,"x_max":452,"o":"m 237 62 q 311 83 287 62 q 336 137 336 104 q 314 187 336 167 q 246 208 293 208 q 183 191 208 208 q 157 144 157 174 l 50 144 q 76 223 50 190 q 146 275 102 257 q 244 294 190 294 q 388 255 333 294 q 443 142 443 216 q 421 76 443 106 q 357 28 399 46 q 256 10 315 10 l 180 10 l 180 62 l 237 62 m 180 37 l 256 37 q 367 21 323 37 q 431 -26 410 5 q 452 -100 452 -56 q 393 -215 452 -174 q 245 -256 334 -256 q 148 -240 194 -256 q 72 -188 101 -223 q 43 -98 43 -153 l 150 -98 q 177 -150 150 -129 q 248 -170 204 -170 q 320 -149 296 -170 q 345 -94 345 -128 q 316 -34 345 -52 q 237 -16 288 -16 l 180 -16 l 180 37 z "},"₄":{"ha":510,"x_min":37,"x_max":475,"o":"m 475 -134 l 41 -134 l 37 -65 l 292 286 l 377 286 l 284 132 l 144 -46 l 475 -46 l 475 -134 m 402 -249 l 294 -249 l 294 286 l 402 286 l 402 -249 z "},"₅":{"ha":510,"x_min":62,"x_max":461,"o":"m 76 14 l 110 286 l 435 286 l 435 198 l 199 198 l 183 81 q 221 94 196 87 q 277 101 246 101 q 413 55 364 101 q 461 -74 461 9 q 440 -164 461 -122 q 374 -231 418 -205 q 262 -256 330 -256 q 167 -238 212 -256 q 93 -186 122 -220 q 62 -102 64 -151 l 168 -102 q 197 -154 172 -138 q 262 -170 222 -170 q 332 -142 311 -170 q 353 -73 353 -114 q 327 -4 353 -31 q 252 22 301 22 q 196 13 214 22 q 162 -7 177 4 l 76 14 z "},"₆":{"ha":510,"x_min":58,"x_max":464,"o":"m 375 293 l 375 205 l 368 205 q 256 185 301 205 q 188 125 211 165 q 165 24 165 85 l 165 -54 q 193 -141 165 -112 q 264 -170 221 -170 q 332 -142 307 -170 q 357 -73 357 -115 q 333 -5 357 -31 q 263 20 309 20 q 210 9 234 20 q 173 -20 186 -2 q 157 -57 159 -37 l 129 -25 q 151 34 131 4 q 207 85 171 64 q 292 106 243 106 q 421 55 378 106 q 464 -73 464 3 q 440 -166 464 -125 q 371 -232 416 -208 q 266 -256 327 -256 q 156 -230 202 -256 q 84 -157 109 -204 q 58 -44 58 -109 l 58 -6 q 78 120 58 64 q 135 214 97 175 q 230 273 174 252 q 360 293 286 293 l 375 293 z "},"₇":{"ha":510,"x_min":40,"x_max":460,"o":"m 460 226 l 223 -249 l 110 -249 l 347 199 l 40 199 l 40 286 l 460 286 l 460 226 z "},"₈":{"ha":510,"x_min":54,"x_max":456,"o":"m 456 -102 q 398 -217 456 -178 q 255 -256 340 -256 q 112 -217 170 -256 q 54 -102 54 -178 q 111 6 54 -34 q 254 46 168 46 q 398 6 341 46 q 456 -102 456 -34 m 349 -94 q 322 -39 349 -59 q 254 -19 296 -19 q 187 -39 212 -19 q 161 -94 161 -59 q 187 -150 161 -130 q 255 -170 212 -170 q 323 -150 297 -170 q 349 -94 349 -130 m 442 144 q 390 43 442 81 q 255 5 337 5 q 120 43 173 5 q 67 144 67 81 q 120 255 67 217 q 254 294 172 294 q 389 255 336 294 q 442 144 442 217 m 335 138 q 313 189 335 170 q 254 208 292 208 q 196 189 217 208 q 174 138 174 170 q 196 88 174 107 q 255 68 218 68 q 314 88 292 68 q 335 138 335 107 z "},"₉":{"ha":510,"x_min":50,"x_max":449,"o":"m 151 -168 q 260 -150 218 -168 q 322 -96 302 -132 q 342 -3 342 -59 l 342 95 q 315 179 342 151 q 248 207 288 207 q 181 176 205 207 q 157 103 157 145 q 180 34 157 62 q 250 6 203 6 q 302 18 280 6 q 337 47 325 29 q 351 83 350 65 l 382 53 q 361 -8 381 22 q 306 -57 340 -38 q 225 -76 271 -76 q 129 -53 168 -76 q 70 10 90 -31 q 50 103 50 51 q 74 198 50 155 q 143 268 98 241 q 248 294 187 294 q 356 268 311 294 q 425 193 401 241 q 449 75 449 144 l 449 40 q 431 -85 449 -31 q 377 -177 414 -140 q 284 -234 340 -215 q 152 -254 229 -254 l 142 -254 l 142 -168 l 151 -168 z "},"⁰":{"ha":510,"x_min":54,"x_max":454,"o":"m 454 673 q 400 500 454 556 q 256 445 345 445 q 110 500 165 445 q 54 673 54 556 l 54 767 q 109 939 54 883 q 254 995 164 995 q 399 939 345 995 q 454 767 454 883 l 454 673 m 347 777 q 323 876 347 844 q 254 908 299 908 q 186 876 210 908 q 162 777 162 844 l 162 664 q 186 563 162 595 q 256 531 211 531 q 323 563 300 531 q 347 664 347 595 l 347 777 z "},"⁴":{"ha":510,"x_min":37,"x_max":475,"o":"m 475 568 l 41 568 l 37 636 l 292 987 l 377 987 l 284 833 l 144 655 l 475 655 l 475 568 m 402 452 l 294 452 l 294 987 l 402 987 l 402 452 z "},"⁵":{"ha":510,"x_min":62,"x_max":461,"o":"m 76 715 l 110 987 l 435 987 l 435 899 l 199 899 l 183 783 q 221 795 196 788 q 277 802 246 802 q 413 756 364 802 q 461 627 461 710 q 440 537 461 579 q 374 470 418 496 q 262 445 330 445 q 167 463 212 445 q 93 515 122 481 q 62 599 64 550 l 168 599 q 197 547 172 564 q 262 531 222 531 q 332 559 311 531 q 353 629 353 587 q 327 697 353 671 q 252 724 301 724 q 196 714 214 724 q 162 694 177 705 l 76 715 z "},"⁶":{"ha":510,"x_min":58,"x_max":464,"o":"m 375 994 l 375 906 l 368 906 q 256 886 301 906 q 188 827 211 867 q 165 726 165 787 l 165 647 q 193 560 165 589 q 264 531 221 531 q 332 559 307 531 q 357 628 357 587 q 333 696 357 670 q 263 722 309 722 q 210 710 234 722 q 173 682 186 699 q 157 644 159 664 l 129 676 q 151 735 131 705 q 207 787 171 766 q 292 808 243 808 q 421 756 378 808 q 464 629 464 704 q 440 535 464 576 q 371 469 416 493 q 266 445 327 445 q 156 471 202 445 q 84 545 109 497 q 58 657 58 592 l 58 695 q 78 821 58 766 q 135 915 97 876 q 230 974 174 954 q 360 994 286 994 l 375 994 z "},"⁷":{"ha":510,"x_min":40,"x_max":460,"o":"m 460 927 l 223 452 l 110 452 l 347 901 l 40 901 l 40 987 l 460 987 l 460 927 z "},"⁸":{"ha":510,"x_min":54,"x_max":456,"o":"m 456 599 q 398 484 456 523 q 255 445 340 445 q 112 484 170 445 q 54 599 54 523 q 111 707 54 667 q 254 747 168 747 q 398 707 341 747 q 456 599 456 667 m 349 607 q 322 662 349 642 q 254 682 296 682 q 187 662 212 682 q 161 607 161 642 q 187 551 161 572 q 255 531 212 531 q 323 551 297 531 q 349 607 349 572 m 442 846 q 390 744 442 783 q 255 706 337 706 q 120 744 173 706 q 67 846 67 783 q 120 957 67 918 q 254 995 172 995 q 389 957 336 995 q 442 846 442 918 m 335 840 q 313 890 335 871 q 254 909 292 909 q 196 890 217 909 q 174 840 174 871 q 196 789 174 808 q 255 770 218 770 q 314 789 292 770 q 335 840 335 808 z "},"⁹":{"ha":510,"x_min":50,"x_max":449,"o":"m 151 533 q 260 551 218 533 q 322 606 302 569 q 342 698 342 642 l 342 796 q 315 880 342 852 q 248 908 288 908 q 181 877 205 908 q 157 804 157 846 q 180 735 157 764 q 250 707 203 707 q 302 719 280 707 q 337 748 325 730 q 351 784 350 766 l 382 754 q 361 693 381 723 q 306 644 340 663 q 225 625 271 625 q 129 648 168 625 q 70 711 90 671 q 50 804 50 752 q 74 900 50 857 q 143 969 98 943 q 248 995 187 995 q 356 969 311 995 q 425 894 401 943 q 449 777 449 845 l 449 741 q 431 616 449 671 q 377 524 414 562 q 284 467 340 486 q 152 448 229 448 l 142 448 l 142 533 l 151 533 z "},"­":{"ha":407,"x_min":25,"x_max":357,"o":"m 357 369 l 25 369 l 25 471 l 357 471 l 357 369 z "},"׳":{"ha":233,"x_min":10,"x_max":189,"o":"m 86 610 l 10 646 q 58 735 41 688 q 74 834 74 783 l 74 966 l 189 966 l 188 844 q 175 755 188 798 q 139 674 162 711 q 86 610 116 637 z "},"״":{"ha":456,"x_min":18,"x_max":401,"o":"m 95 610 l 18 646 q 66 735 50 688 q 82 834 82 783 l 82 966 l 197 966 l 197 844 q 183 755 197 798 q 148 674 170 711 q 95 610 125 637 m 300 610 l 223 646 q 271 735 255 688 q 287 834 287 783 l 287 966 l 401 966 l 401 844 q 388 755 401 798 q 352 674 375 711 q 300 610 330 637 z "},"־":{"ha":351,"x_min":41,"x_max":310,"o":"m 310 698 l 41 698 l 41 799 l 310 799 l 310 698 z "},"‏":{"ha":0,"x_min":-594,"x_max":-182,"o":"m -182 865 l -514 865 l -514 785 l -182 785 l -182 865 m -314 674 l -532 862 l -594 825 l -426 674 l -314 674 m -433 987 l -594 825 l -529 790 l -320 987 l -433 987 m -182 865 l -261 865 l -261 -136 l -182 -136 l -182 865 z "},"‎":{"ha":0,"x_min":-553,"x_max":-140,"o":"m -553 865 l -220 865 l -220 785 l -553 785 l -553 865 m -420 674 l -203 862 l -140 825 l -309 674 l -420 674 m -302 987 l -140 825 l -205 790 l -414 987 l -302 987 m -553 865 l -473 865 l -473 -136 l -553 -136 l -553 865 z "},"‍":{"ha":0,"x_min":-578,"x_max":-214,"o":"m -438 862 l -359 862 l -359 -136 l -438 -136 l -438 862 m -273 648 l -578 958 l -519 1017 l -214 707 l -273 648 m -578 707 l -273 1017 l -214 958 l -518 648 l -578 707 z "},"‌":{"ha":0,"x_min":-437,"x_max":-357,"o":"m -437 865 l -357 865 l -357 -136 l -437 -136 l -437 865 z "},"₪":{"ha":1168,"x_min":103,"x_max":1046,"o":"m 381 0 l 381 562 l 498 562 l 498 104 l 698 104 q 864 162 799 103 q 928 326 928 222 l 928 800 l 1045 800 l 1045 328 q 1003 154 1046 227 q 882 40 961 80 q 693 0 803 0 l 381 0 m 103 0 l 103 800 l 768 800 l 768 397 q 765 337 768 366 q 755 281 762 308 q 739 227 749 254 l 636 211 l 630 216 q 645 297 640 254 q 650 391 650 340 l 650 696 l 220 696 l 220 0 l 103 0 z "},"﬩":{"ha":765,"x_min":43,"x_max":720,"o":"m 321 818 l 435 818 l 435 513 l 720 513 l 720 408 l 43 408 l 43 513 l 321 513 l 321 818 z "},"̀":{"ha":0,"x_min":-583,"x_max":-298,"o":"m -298 843 l -407 843 l -583 1042 l -429 1042 l -298 843 z "},"́":{"ha":0,"x_min":-447,"x_max":-163,"o":"m -315 1042 l -163 1042 l -345 843 l -447 843 l -315 1042 z "},"̃":{"ha":0,"x_min":-601,"x_max":-121,"o":"m -121 1017 q -140 931 -121 968 q -193 874 -160 895 q -267 854 -226 854 q -324 864 -302 854 q -364 886 -347 873 q -401 908 -382 899 q -449 918 -420 918 q -497 896 -477 918 q -516 842 -516 874 l -601 847 q -582 934 -601 897 q -529 992 -562 971 q -455 1014 -496 1014 q -404 1004 -427 1014 q -362 981 -382 994 q -321 959 -342 968 q -273 949 -300 949 q -225 971 -245 949 q -205 1025 -205 993 l -121 1017 z "},"ְ":{"ha":0,"x_min":352,"x_max":458,"o":"m 405 -214 q 367 -200 382 -214 q 352 -165 352 -186 q 367 -129 352 -143 q 405 -115 382 -115 q 443 -129 428 -115 q 458 -165 458 -143 q 443 -200 458 -186 q 405 -214 428 -214 m 405 -371 q 367 -357 382 -371 q 352 -321 352 -342 q 367 -286 352 -300 q 405 -272 382 -272 q 443 -286 428 -272 q 458 -321 458 -300 q 443 -357 458 -342 q 405 -371 428 -371 z "},"ֱ":{"ha":0,"x_min":197,"x_max":614,"o":"m 250 -214 q 213 -200 228 -214 q 197 -165 197 -186 q 213 -129 197 -143 q 250 -115 228 -115 q 288 -129 273 -115 q 303 -165 303 -143 q 288 -200 303 -186 q 250 -214 273 -214 m 405 -214 q 367 -200 382 -214 q 352 -165 352 -186 q 367 -129 352 -143 q 405 -115 382 -115 q 443 -129 428 -115 q 458 -165 458 -143 q 443 -200 458 -186 q 405 -214 428 -214 m 562 -214 q 523 -200 538 -214 q 508 -165 508 -186 q 523 -129 508 -143 q 562 -115 538 -115 q 599 -129 584 -115 q 614 -165 614 -143 q 599 -200 614 -186 q 562 -214 584 -214 m 328 -347 q 290 -333 305 -347 q 275 -298 275 -319 q 290 -262 275 -277 q 328 -248 305 -248 q 366 -262 351 -248 q 381 -298 381 -277 q 366 -333 381 -319 q 328 -347 351 -347 m 562 -371 q 523 -357 538 -371 q 508 -321 508 -342 q 523 -286 508 -300 q 562 -272 538 -272 q 599 -286 584 -272 q 614 -321 614 -300 q 599 -357 614 -342 q 562 -371 584 -371 z "},"ֲ":{"ha":0,"x_min":204,"x_max":608,"o":"m 204 -196 l 204 -132 l 453 -132 l 453 -196 l 204 -196 m 555 -371 q 516 -357 532 -371 q 501 -321 501 -342 q 516 -286 501 -300 q 555 -272 532 -272 q 592 -286 577 -272 q 608 -321 608 -300 q 592 -357 608 -342 q 555 -371 577 -371 m 555 -214 q 516 -200 532 -214 q 501 -165 501 -186 q 516 -129 501 -143 q 555 -115 532 -115 q 592 -129 577 -115 q 608 -165 608 -143 q 592 -200 608 -186 q 555 -214 577 -214 z "},"ֳ":{"ha":0,"x_min":203,"x_max":608,"o":"m 331 -359 q 293 -345 309 -359 q 278 -310 278 -330 q 285 -282 278 -293 q 299 -253 292 -271 q 309 -196 307 -235 l 203 -196 l 203 -132 l 455 -132 l 455 -196 l 352 -196 q 362 -253 355 -235 q 376 -282 370 -271 q 383 -310 383 -293 q 368 -345 383 -331 q 331 -359 353 -359 m 555 -371 q 516 -357 532 -371 q 501 -321 501 -342 q 516 -286 501 -300 q 555 -272 532 -272 q 592 -286 577 -272 q 608 -321 608 -300 q 592 -357 608 -342 q 555 -371 577 -371 m 555 -214 q 516 -200 532 -214 q 501 -165 501 -186 q 516 -129 501 -143 q 555 -115 532 -115 q 592 -129 577 -115 q 608 -165 608 -143 q 592 -200 608 -186 q 555 -214 577 -214 z "},"ִ":{"ha":0,"x_min":352,"x_max":458,"o":"m 405 -214 q 367 -199 382 -214 q 352 -165 352 -184 q 367 -129 352 -143 q 405 -115 382 -115 q 443 -129 428 -115 q 458 -165 458 -143 q 443 -200 458 -186 q 405 -214 428 -214 z "},"ֵ":{"ha":0,"x_min":275,"x_max":535,"o":"m 482 -214 q 444 -199 460 -214 q 429 -165 429 -184 q 444 -129 429 -143 q 482 -115 460 -115 q 520 -129 505 -115 q 535 -165 535 -143 q 520 -200 535 -186 q 482 -214 505 -214 m 328 -214 q 290 -199 305 -214 q 275 -165 275 -184 q 290 -129 275 -143 q 328 -115 305 -115 q 366 -129 351 -115 q 381 -165 381 -143 q 366 -200 381 -186 q 328 -214 351 -214 z "},"ֶ":{"ha":0,"x_min":275,"x_max":535,"o":"m 482 -214 q 444 -199 460 -214 q 429 -165 429 -184 q 444 -129 429 -143 q 482 -115 460 -115 q 520 -129 505 -115 q 535 -165 535 -143 q 520 -200 535 -186 q 482 -214 505 -214 m 405 -347 q 367 -333 382 -347 q 352 -298 352 -319 q 367 -262 352 -277 q 405 -248 382 -248 q 443 -262 428 -248 q 458 -298 458 -277 q 443 -333 458 -319 q 405 -347 428 -347 m 328 -214 q 290 -199 305 -214 q 275 -165 275 -184 q 290 -129 275 -143 q 328 -115 305 -115 q 366 -129 351 -115 q 381 -165 381 -143 q 366 -200 381 -186 q 328 -214 351 -214 z "},"ַ":{"ha":0,"x_min":268,"x_max":542,"o":"m 268 -196 l 268 -132 l 542 -132 l 542 -196 l 268 -196 z "},"ָ":{"ha":0,"x_min":277,"x_max":533,"o":"m 407 -363 q 369 -348 384 -363 q 353 -313 353 -332 q 360 -285 353 -296 q 375 -255 368 -274 q 385 -196 383 -236 l 277 -196 l 277 -132 l 533 -132 l 533 -196 l 428 -196 q 438 -255 431 -236 q 453 -285 446 -274 q 460 -313 460 -296 q 445 -349 460 -334 q 407 -363 429 -363 z "},"ׇ":{"ha":0,"x_min":277,"x_max":533,"o":"m 407 -383 q 369 -368 384 -383 q 353 -334 353 -353 q 361 -300 353 -315 q 377 -260 370 -284 q 382 -232 380 -251 q 385 -196 385 -213 l 277 -196 l 277 -132 l 533 -132 l 533 -196 l 428 -196 q 431 -232 429 -213 q 437 -260 434 -250 q 452 -300 444 -284 q 460 -334 460 -315 q 445 -369 460 -355 q 407 -383 429 -383 z "},"ֹ":{"ha":0,"x_min":123,"x_max":231,"o":"m 177 903 q 139 918 154 903 q 123 951 123 932 q 139 987 123 973 q 177 1001 154 1001 q 215 987 200 1001 q 231 951 231 973 q 215 917 231 930 q 177 903 200 903 z "},"ֺ":{"ha":0,"x_min":123,"x_max":231,"o":"m 177 903 q 139 918 154 903 q 123 951 123 932 q 139 987 123 973 q 177 1001 154 1001 q 215 987 200 1001 q 231 951 231 973 q 215 917 231 930 q 177 903 200 903 z "},"ֻ":{"ha":0,"x_min":353,"x_max":629,"o":"m 406 -214 q 368 -199 383 -214 q 353 -165 353 -184 q 368 -129 353 -143 q 406 -115 383 -115 q 444 -129 429 -115 q 458 -165 458 -143 q 444 -200 458 -186 q 406 -214 429 -214 m 576 -466 q 538 -451 553 -466 q 523 -416 523 -435 q 538 -380 523 -395 q 576 -366 553 -366 q 614 -380 599 -366 q 629 -416 629 -395 q 614 -452 629 -437 q 576 -466 599 -466 m 491 -340 q 453 -325 468 -340 q 437 -291 437 -310 q 453 -255 437 -269 q 491 -241 468 -241 q 529 -255 513 -241 q 544 -291 544 -270 q 529 -326 544 -312 q 491 -340 513 -340 z "},"ּ":{"ha":0,"x_min":161,"x_max":268,"o":"m 214 356 q 177 371 192 356 q 161 406 161 387 q 177 441 161 427 q 214 456 192 456 q 253 441 237 456 q 268 406 268 427 q 253 371 268 385 q 214 356 237 356 z "},"ֿ":{"ha":0,"x_min":163,"x_max":493,"o":"m 163 920 l 163 993 l 493 993 l 493 920 l 163 920 z "},"ׁ":{"ha":0,"x_min":847,"x_max":954,"o":"m 901 903 q 862 918 878 903 q 847 951 847 932 q 862 987 847 973 q 901 1001 878 1001 q 938 987 923 1001 q 954 951 954 973 q 938 917 954 930 q 901 903 923 903 z "},"ׂ":{"ha":0,"x_min":109,"x_max":215,"o":"m 161 903 q 124 918 139 903 q 109 951 109 932 q 124 987 109 973 q 161 1001 139 1001 q 200 987 184 1001 q 215 951 215 973 q 200 917 215 930 q 161 903 184 903 z "},"ﬅ":{"ha":857,"x_min":41,"x_max":800,"o":"m 262 638 l 41 638 l 41 734 l 262 734 l 262 638 m 387 1056 q 523 1038 448 1056 q 661 988 597 1019 l 661 846 l 534 846 l 534 929 q 475 947 513 940 q 407 954 437 954 q 315 916 347 954 q 283 812 283 878 l 283 0 l 157 0 l 157 812 q 218 993 157 930 q 387 1056 280 1056 m 798 638 l 400 638 l 400 734 l 798 734 l 798 638 m 661 912 l 661 182 q 672 125 661 144 q 702 100 684 106 q 741 94 720 94 q 774 96 757 94 q 800 101 791 99 l 800 0 q 761 -9 785 -5 q 703 -14 737 -14 q 618 5 657 -14 q 557 66 580 23 q 534 182 534 109 l 534 912 l 661 912 z "},"ﬆ":{"ha":1147,"x_min":64,"x_max":1099,"o":"m 572 519 q 522 642 550 585 q 474 753 494 700 q 454 857 454 806 q 485 957 454 913 q 570 1027 515 1001 q 698 1053 625 1053 q 830 1029 779 1053 q 910 965 882 1004 q 949 880 938 926 q 960 792 960 834 l 833 792 q 819 873 833 838 q 776 929 806 909 q 697 949 746 949 q 631 935 658 949 q 590 898 604 922 q 576 842 576 873 q 586 765 576 801 q 609 693 596 730 q 632 614 622 656 q 642 519 642 572 l 572 519 m 1096 638 l 705 638 l 705 734 l 1096 734 l 1096 638 m 960 793 l 960 201 q 984 116 960 138 q 1040 94 1008 94 q 1073 96 1055 94 q 1099 101 1090 99 l 1099 0 q 1060 -9 1084 -5 q 1002 -14 1036 -14 q 883 36 932 -14 q 833 202 833 85 l 833 793 l 960 793 m 522 195 q 510 245 522 222 q 463 288 498 269 q 354 322 427 307 q 213 365 273 339 q 122 432 154 391 q 90 533 90 473 q 123 640 90 591 q 218 718 157 688 q 361 747 279 747 q 512 716 450 747 q 608 634 575 686 q 642 519 642 582 l 515 519 q 475 605 515 564 q 361 646 435 646 q 278 630 310 646 q 231 589 245 614 q 216 537 216 564 q 230 490 216 510 q 280 454 243 470 q 385 423 316 439 q 534 374 475 403 q 621 304 592 346 q 649 203 649 263 q 614 91 649 140 q 515 14 578 41 q 365 -14 451 -14 q 201 21 268 -14 q 99 110 134 56 q 64 226 64 165 l 191 226 q 221 144 195 174 q 287 101 248 114 q 365 88 326 88 q 451 102 416 88 q 504 140 486 116 q 522 195 522 164 z "}}}
